<?xml version="1.0" encoding="UTF-8"?>
<svg width="270.97mm" height="270.88mm" version="1.1" viewBox="0 0 270.97 270.88" xmlns="http://www.w3.org/2000/svg">
 <g transform="translate(26.869 -13.178)">
  <g transform="translate(49.047 15.978)">
   <rect x="-18.72" y="37.877" width="155.84" height="191.64" fill="#0ff" stroke-width="0"/>
   <g stroke-width=".26458">
    <path d="m20.495 202.7c-1.1907-1.4921-1.1238 2.6462-1.1238-69.555 0-66.748 6e-3 -67.543 0.52355-68.612 1.1159-2.3051-1.5041-2.1187 30.947-2.2013 15.781-0.04015 28.636-0.0172 28.568 0.05102-0.37556 0.37556-11.327 1.9025-23.923 3.3353-1.4552 0.16554-8.3248 0.36634-15.266 0.44621-11.594 0.13342-12.684 0.18446-13.413 0.62763-1.8183 1.1058-1.6837-1.8857-1.633 36.294 0.0252 18.953-0.078 40.592-0.22928 48.086-0.1513 7.4943-0.32631 17.555-0.38891 22.357-0.13038 10.002-0.84524 16.653-2.8655 26.657-0.57606 2.8526-0.70663 3.127-1.1961 2.5135zm16.893-85.729c-1.7177-0.88276-1.643-0.14532-1.6966-16.751-0.0479-14.829-0.0401-15.077 0.50633-16.119 1.0845-2.0681-1.5085-1.9026 32.691-2.0855l30.6-0.16364 0.19155 2.8103c0.92704 13.601-5.3382 24.691-17.804 31.516l-2.0478 1.1212-20.902-5.3e-4c-16.068-5.3e-4 -21.049-0.0761-21.538-0.32739z" fill="#a9e1ca"/>
    <path d="m-3.1659 214.16c-1.3025-0.67425-1.8492-1.1523-2.4748-2.1643l-0.80302-1.2988-0.0679-77.67-0.0679-77.67 0.66976-1.3689c0.70185-1.4345 1.8344-2.4732 3.5011-3.2109 1.6321-0.72239 121.51-0.69091 123.58 0.03245 1.8898 0.65832 2.9943 1.686 3.8418 3.5745l0.70344 1.5675-0.0688 77.219c-0.0656 73.672-0.0906 77.268-0.54445 78.274-0.60694 1.3459-1.37 2.1582-2.6994 2.8736l-1.0583 0.56957-122.84 0.1368zm114.64-7.5464c2.8263-1.3814 4.2741-3.3993 4.7569-6.6303 0.34515-2.3096 0.0217-134.18-0.33246-135.55-0.60142-2.3359-2.9626-4.6615-6.0198-5.9291-1.2018-0.4983-2.4757-0.51342-49.256-0.58445-32.499-0.04935-48.606 0.01667-49.83 0.20423-3.0344 0.4652-5.0236 1.8694-6.3086 4.4533l-0.61481 1.2363-0.0686 68.385c-0.0763 76.058-0.21692 70.133 1.7148 72.272 0.92922 1.0285 2.2207 1.8384 3.9026 2.4472 0.83444 0.30205 44.89 0.61448 81.896 0.5808l18.389-0.0168 1.7706-0.86542zm-58.724-16.374c-0.18281-0.0738-0.26508-0.24313-0.18282-0.37622 0.0823-0.13309 0.0201-0.24199-0.13806-0.24199-0.45429 0-0.15086-1.8835 0.34845-2.1629 0.24166-0.13524 1.0577-0.20992 1.8133-0.16596l1.374 0.0799-1.4412 1.5007c-0.79268 0.82538-1.5908 1.4403-1.7736 1.3665zm13.816-0.41977c-0.069-0.1819-0.15458-0.80698-0.19013-1.3891l-0.0646-1.0583 4.2333-0.1528-1.4552 1.4595c-1.4201 1.4243-2.27 1.8085-2.5234 1.1407zm18.071-17.811c-1.445-0.78406-1.5247-1.2677-1.5247-9.2564v-7.3156l0.92925-0.92926c0.91401-0.91401 0.95967-0.92754 2.7819-0.82458 1.6685 0.0943 1.9377 0.18973 2.7088 0.96037l0.85613 0.85568 0.0782 6.9493c0.0894 7.9466-0.0295 8.6842-1.5292 9.4834-1.1149 0.5942-3.2759 0.63297-4.3003 0.0772zm-10.453-6.1064c-2.5296-1.2471-2.5038-5.0753 0.0425-6.2836 2.2474-1.0664 4.9168 0.6553 4.9168 3.1713 0 2.5387-2.6937 4.2292-4.9593 3.1123zm23.612 0.0767c-1.2326-0.56365-1.7846-1.3601-1.9201-2.77-0.42346-4.4071 5.4472-5.2603 6.3983-0.92991 0.53161 2.4204-2.2503 4.7188-4.4782 3.7zm-69.865-32.074c-3.1882-1.0961-3.7935-2.5234-3.8057-8.9744-9e-3 -4.6637 0.0416-4.8118 1.4692-4.3232 0.83398 0.28544 8.0677 0.36292 38.203 0.40924 20.446 0.0314 37.323 0.0617 37.505 0.0673 0.25237 8e-3 0.33073 1.1766 0.33073 4.933v4.9229l-0.78833 0.99534c-1.7515 2.2115 1.1027 2.0453-37.607 2.1898-27.916 0.10425-34.482 0.0633-35.307-0.22002z" fill="#d0a93f"/>
    <path d="m46.593 267.89c-0.94589-0.13531-3.5057-0.48628-5.6885-0.77991-5.1432-0.69186-11.839-1.947-14.684-2.7524-1.2369-0.35018-3.2015-0.89522-4.3656-1.2112-2.5312-0.68704-3.1465-0.88739-7.9375-2.5843-4.7231-1.6729-9.3367-3.5876-12.7-5.2707-1.4552-0.72823-2.9435-1.4168-3.3073-1.5301-0.36381-0.1133-1.1365-0.51603-1.7172-0.89495-0.58062-0.37893-2.5684-1.5819-4.4172-2.6733-4.8739-2.8772-8.7173-5.2934-9.4761-5.9572-0.3638-0.31829-1.8521-1.3891-3.3073-2.3796s-2.7768-1.959-2.937-2.1524c-0.16012-0.19335-1.2317-1.0776-2.3812-1.9649-3.5971-2.7766-11.375-10.106-13.728-12.936-0.54003-0.64952-1.852-2.1378-2.9156-3.3073-1.0635-1.1695-2.3781-2.7217-2.9212-3.4493-0.54316-0.72761-1.5229-1.9562-2.1772-2.7303-0.6543-0.77405-1.9272-2.5005-2.8286-3.8364-0.90143-1.336-2.0034-2.9649-2.4488-3.6197-10.566-15.534-18.323-35.384-20.991-53.71-0.15888-1.0914-0.53766-3.5917-0.84174-5.5562-0.66401-4.2899-1.0011-23.812-0.48879-28.31 0.15742-1.3824 0.41246-3.7637 0.56676-5.2917 0.15429-1.528 0.57017-4.0878 0.92418-5.6886 0.354-1.6007 0.872-4.1606 1.1511-5.6885s1.1284-4.8022 1.8874-7.276c0.75898-2.4739 1.7732-5.8076 2.2538-7.4083 1.0965-3.652 1.4118-4.5022 2.8633-7.7195 3.7875-8.3955 7.8899-16.577 9.5965-19.138 3.5088-5.2654 7.6065-10.891 11.368-15.608 10.38-13.016 24.398-24.533 41.127-33.792 3.2994-1.8262 13.958-6.3093 19.037-8.0072 12.473-4.1695 19.084-5.6984 29.713-6.8712 7.2315-0.79793 25.099-0.79765 30.665 4.76e-4 13.399 1.9212 25.112 4.9587 34.607 8.974 1.0914 0.46156 2.282 0.93704 2.6458 1.0566 0.94151 0.30948 9.6432 4.6154 13.096 6.4803 3.6516 1.9724 11.298 6.983 15.038 9.8545 7.0107 5.3825 7.5122 5.8235 13.935 12.254 6.5795 6.5881 9.0605 9.3785 12.452 14.004 0.51825 0.70691 1.7684 2.3975 2.7781 3.7569 3.8962 5.2456 8.7406 13.277 11.839 19.629 1.1196 2.2951 2.0356 4.2575 2.0356 4.3609 0 0.1034 0.54519 1.4368 1.2115 2.9631 4.3967 10.071 6.8166 19.322 9.4115 35.98 0.14735 0.94589 0.32523 8.1255 0.39529 15.955l0.1274 14.235-0.79587 4.0214c-0.43772 2.2118-1.1025 5.8073-1.4773 7.9901-0.37479 2.1828-1.3283 6.2309-2.119 8.9958-0.79066 2.7649-1.6177 5.7415-1.8378 6.6146-0.49991 1.9828-2.6761 7.4278-5.1814 12.965-2.9505 6.5204-3.0669 6.7547-5.3916 10.848-2.3096 4.0667-7.5215 12.182-8.0675 12.562-0.10881 0.0757-0.77914 0.9711-1.4896 1.9898-11.068 15.869-32.561 33.886-49.487 41.483-15.828 7.105-22.536 9.1734-38.354 11.827-8.781 1.4729-7.7865 1.4014-20.505 1.4737-6.6212 0.0377-12.812-0.0423-13.758-0.17762zm73.531-48.938c3.8642-0.47754 6.7182-2.3712 8.4074-5.5784l0.74416-1.4129v-157.96l-0.7407-1.5875c-1.3968-2.9937-4.0505-5.0845-7.1899-5.6649-2.5987-0.48039-122.36-0.39325-124.17 0.09035-2.6877 0.71546-5.5767 3.1331-6.7501 5.6487l-0.58247 1.2488v157.7l0.86798 1.7631c1.4315 2.9078 4.6582 5.2968 7.7902 5.7678 1.9783 0.29751 119.21 0.27673 121.63-0.0216zm-45.805-11.553c0.91521-0.0518 2.344-0.0514 3.175 1e-3 0.83104 0.0523 0.0822 0.0947-1.664 0.0942-1.7462-5.3e-4 -2.4262-0.0434-1.511-0.0952zm30.549 0.0138c0.25466-0.0666 0.67138-0.0666 0.92604 0 0.25466 0.0665 0.0463 0.121-0.46302 0.121s-0.71768-0.0545-0.46302-0.121zm-14.536-16.482c-1.5623-0.33185-2.3511-0.92797-2.9992-2.2667-0.53165-1.0982-0.53837-1.2005-0.12491-1.9004 1.0978-1.8585 3.201-2.4483 8.7306-2.4484 3.971-7e-5 5.2418 0.27518 6.2491 1.3536 1.6367 1.7521 1.1092 3.8339-1.1892 4.6938-1.5828 0.59219-8.7546 0.97416-10.666 0.56808zm-34.764-3.2855c0.23653-0.285 0.22869-0.40297-0.0337-0.50828-0.18798-0.0754-0.0554-0.14653 0.29455-0.15802 0.61973-0.0203 0.62383-7e-3 0.15743 0.50828-0.5403 0.59702-0.89325 0.73037-0.41823 0.15802zm-18.036-70.735c3.6744-0.0415 9.6871-0.0415 13.361 0s0.66807 0.0754-6.6807 0.0754-10.355-0.0339-6.6807-0.0754zm27.12 6e-3c0.54571-0.0571 1.4387-0.0571 1.9844 0s0.0992 0.10378-0.99219 0.10378c-1.0914 0-1.5379-0.0467-0.99219-0.10378zm-40.438-7.0838c2.6e-4 -2.6194 0.0399-3.6552 0.088-2.3017s0.0479 3.4966-5.3e-4 4.7625c-0.0484 1.266-0.0878 0.1586-0.0875-2.4608zm4.9936-28.374c0.84206-0.05266 2.1518-0.05217 2.9104 0.0011 0.75867 0.05326 0.0697 0.09635-1.531 0.09575-1.6007-5.29e-4 -2.2215-0.04417-1.3794-0.09684zm12.577-0.0026c4.558-0.04062 11.94-0.04059 16.404 6e-5 4.4643 0.04065 0.73498 0.07388-8.2873 0.07385-9.0223-3.5e-5 -12.675-0.03329-8.1169-0.07391z" fill="#c26286"/>
    <path d="m13.781 203.17c-1.9412-0.10087-1.9751-0.19526-1.2816-3.5687 1.961-9.5387 2.7126-16.549 2.8425-26.514 0.0626-4.8022 0.23761-14.863 0.38891-22.357 0.15131-7.4943 0.25448-29.133 0.22928-48.086-0.0508-38.18-0.18536-35.188 1.633-36.294 0.72874-0.44317 1.8196-0.49422 13.413-0.62763 6.941-0.07988 13.811-0.28067 15.266-0.44621 9.4578-1.0759 16.402-1.9837 19.844-2.594l3.9688-0.70384 36.693-0.0154-0.0359 8.9854c-0.0198 4.942-0.0915 9.041-0.15936 9.1088-0.0679 0.06788-0.44959-0.18894-0.84825-0.57072-2.3869-2.2858-2.4578-2.2893-44.646-2.2022l-32.808 0.06768-1.521 0.73684c-1.7277 0.83698-2.7404 1.8725-3.6619 3.7447l-0.63798 1.2962v24.209c0 24.02 4e-3 24.219 0.55442 25.407 0.74289 1.6052 2.5128 3.2596 4.5987 4.2985l1.7136 0.85349 13.897 0.13274c7.6433 0.073 23.72 0.13253 35.725 0.13229l21.828-5.3e-4 1.5856-0.63834c1.1009-0.44321 2.0604-1.1132 3.139-2.1918l1.5535-1.5535-0.0996 11.896c-0.0548 6.5431-0.17617 11.973-0.26976 12.067-0.0936 0.0936-0.6492-0.13226-1.2347-0.50186-1.8952-1.1964-5.46-1.561-7.9151-0.80959-0.47903 0.14662-0.59532 0.0793-0.59532-0.34455 0-3.381-3.6775-6.229-8.0698-6.2496-3.4761-0.0163-5.6134 1.2718-7.0278 4.2354l-0.81779 1.7135-1.7923-0.17661c-5.7664-0.56821-9.9103 4.5241-7.9485 9.7676 1.0898 2.9128 4.4081 4.9677 7.378 4.5689 0.66692-0.0896 1.4379-0.19308 1.7133-0.23006 0.39395-0.0529 0.61048 0.25803 1.0157 1.4585 1.2163 3.6033 3.9923 5.3764 8.089 5.1667 4.1277-0.21137 6.8359-2.2096 7.4609-5.5049 0.3299-1.7396 0.26582-1.6821 1.496-1.3406 1.417 0.39346 4.0094 0.35479 5.4589-0.0814 0.67027-0.20172 1.27-0.31549 1.3326-0.25282 0.18479 0.18479-0.11336 10.468-0.32865 11.335-0.16109 0.64892-0.31383 0.77693-0.83707 0.7016-1.955-0.28147-11.235-0.31236-12.539-0.0417-3.979 0.82605-6.3348 4.3198-5.5899 8.2904 0.22528 1.2009 2.1591 3.3655 3.5783 4.0055 0.59283 0.26732 1.0779 0.60453 1.0779 0.74934 0 0.4312-1.7852 2.4987-5.1058 5.9131l-3.1257 3.2141-33.521-0.0391c-18.437-0.0215-34.212-0.0749-35.056-0.11881zm43.694-10.385c0.88322-0.58979 2.4892-1.8973 3.5689-2.9056 1.0869-1.015 2.5364-2.079 3.2476-2.3839 1.8811-0.80633 2.3585-2.1851 1.0527-3.0407-1.1006-0.72114-10.785-0.45855-11.556 0.31333-0.68589 0.68665-0.75681 2.5508-0.12366 3.2505 0.50151 0.55416 0.5096 0.90844 0.0508 2.2261-0.52457 1.5067-0.21604 2.5885 0.89819 3.1492 1.1824 0.59505 1.0009 0.63368 2.8617-0.60891zm12.817 0.71314c0.46827-0.19757 1.9755-1.4552 3.3493-2.7948 1.5346-1.4964 2.7822-2.4925 3.2352-2.5831 0.94234-0.18847 1.1674-0.49147 1.3746-1.8504 0.25764-1.6904-0.40323-2.0804-3.8504-2.2726-3.8832-0.21651-6.5406 0.1155-7.1728 0.89614-0.51911 0.64107-0.51504 0.79779 0.0938 3.6148 0.28656 1.326 0.29421 1.8346 0.0378 2.5135-0.36642 0.97039 0.11117 1.8922 1.2958 2.501 0.78031 0.40102 0.62227 0.40339 1.6366-0.0246zm-29.443-3.3998c2.585-0.7905 3.1599-1.849 3.3653-6.1958 0.21186-4.4838 6e-3 -4.3326 5.8984-4.3326 3.4583 0 4.4968-0.0806 4.735-0.36764 0.7352-0.88587 1.1214-4.2104 1.0354-8.913-0.1257-6.8713-0.66675-7.4497-6.887-7.3622-4.6376 0.0652-4.4419 0.30724-5.2141-6.4495-0.14599-1.2774-0.41913-2.6467-0.60699-3.0427-0.82402-1.7372-4.1795-2.4205-10.077-2.052-4.9106 0.30682-5.3469 0.79201-5.859 6.5142-0.44111 4.9297-0.13467 4.6602-5.4349 4.7784-6.1491 0.13705-6.212 0.23022-6.0409 8.9571 0.15559 7.9378 0.55208 8.5316 5.639 8.4455 6.2298-0.10548 6.0681-0.22685 5.8069 4.359l-0.18464 3.2411 0.82321 0.93759c0.5161 0.5878 1.2465 1.0561 1.9579 1.2553 2.7015 0.75638 8.8967 0.88399 11.044 0.22747zm-18.751-116.67c0.64396-1.0157 0.19077-3.0073-0.79374-3.4882-2.2417-1.095-4.0192 2.0105-2.0665 3.6103 0.66234 0.5426 2.4882 0.4647 2.8602-0.12203zm4.5678-0.10785c0.40863-1.0649 0.16727-2.9864-0.42744-3.4029-1.5794-1.1063-2.9928-0.03364-2.7108 2.0573 0.24141 1.7902 0.21629 1.7641 1.6987 1.7641 0.9222 0 1.3238-0.11675 1.4396-0.41852zm4.2389 0.19072c0.46298-0.74912 0.3905-2.9763-0.11325-3.4801-0.62967-0.62966-1.9144-0.68624-2.491-0.1097-0.50194 0.50194-0.5728 3.0255-0.0983 3.5001 0.36289 0.36288 2.49 0.43349 2.7025 0.0897zm4.6009-1.4556c0.0962-1.8601-0.36095-2.5499-1.6898-2.5499-1.2271 0-1.6977 0.58593-1.6977 2.1139 0 2.033 0.10791 2.1556 1.8189 2.0655l1.4884-0.07836zm3.8885-0.29462c0-1.4807-0.0455-1.5971-0.71694-1.8333-1.4195-0.4992-2.0612 0.11327-2.0612 1.9673v1.607l2.7781-0.15994zm32.2 44.935c-0.19864-0.0851 0.50167-0.62929 1.6572-1.2878 4.902-2.7935 9.315-6.6872 11.842-10.448 0.7332-1.0914 1.4457-1.9517 1.5833-1.9117 0.1376 0.04 0.17958-0.0415 0.0933-0.18118-0.22433-0.36296 0.95203-2.6757 1.2632-2.4834 0.14249 0.0881 0.18377 0.0383 0.0917-0.11065-0.092-0.14893 0.18721-1.2423 0.62057-2.4298s0.78793-2.3937 0.78793-2.6805c0-0.28685 0.0893-0.52155 0.19844-0.52155s0.20813-0.26789 0.21997-0.59531c0.0119-0.32742 0.1732-1.8153 0.35855-3.3064 0.20071-1.6146 0.28001-4.0034 0.19607-5.9063l-0.14094-3.1952 5.3386 0.08543c8.7554 0.1401 7.9655-1.5708 8.057 17.451 0.0719 14.958 0.0681 15.085-0.48388 15.86-1.2403 1.7418-0.72343 1.6879-16.787 1.7514-8.0036 0.0316-14.707-9e-3 -14.896-0.0898z" fill="#08bcac"/>
    <path d="m73.403 203.53c-9.847-0.0775-17.963-0.20044-18.036-0.2732-0.0728-0.0728 4.9495-0.0928 11.161-0.0445l11.293 0.0878 3.1733-3.2628c4.5155-4.643 5.5859-6.0195 4.9549-6.3724-0.10914-0.061-0.0198-0.0546 0.19844 0.0144 4.1115 1.2987 11.405 0.98538 14.745-0.63342 4.148-2.0105 4.7789-7.3668 1.1763-9.9874-2.6577-1.9333-2.472-1.8944-9.0423-1.8944-6.4262 0-6.7703 0.0584-8.9314 1.5168-1.1596 0.78254-1.9953 2.0943-2.4444 3.8369l-0.25677 0.9963 0.1344-1.1906c0.26728-2.3678 2.7191-4.705 5.5527-5.2932 1.3036-0.27063 10.584-0.23975 12.539 0.0417 0.52325 0.0753 0.67599-0.0527 0.83708-0.7016 0.21529-0.86724 0.51343-11.15 0.32865-11.335-0.0627-0.0627-0.66236 0.0511-1.3326 0.25282-1.4494 0.43622-4.0419 0.47489-5.4589 0.0814-1.2301-0.34158-1.166-0.399-1.496 1.3406-0.45921 2.4214-3.3304 5.2833-5.2923 5.2752-0.21828-8e-4 0.22685-0.27095 0.98918-0.6001 2.3948-1.034 3.8103-2.8095 4.1111-5.1568 0.19028-1.4849 0.13736-1.4565 2.0242-1.0853 4.5354 0.89229 8.1516-0.73967 9.1396-4.1246 0.92226-3.1598-0.0128-5.9386-2.58-7.6675-1.5845-1.0671-1.5025-1.2592 0.10449-0.24469 0.59294 0.37431 1.1546 0.60399 1.2482 0.51041 0.0936-0.0936 0.21498-5.5236 0.26976-12.067l0.0996-11.896-1.5535 1.5535c-1.4953 1.4953-3.7908 2.7139-5.0652 2.689-0.2492-5e-3 0.24113-0.24767 1.0896-0.53955 2.7423-0.94334 5.1169-3.1233 5.7297-5.2599 0.41658-1.4525 0.67227-47.007 0.27335-48.701-0.59022-2.506-1.3301-3.604-3.3432-4.9615-0.42309-0.2853-0.39844-0.29042 0.16299-0.03382 0.3638 0.16627 0.98764 0.60651 1.3863 0.9783 0.39867 0.3718 0.78038 0.62045 0.84826 0.55258 0.0679-0.06788 0.13988-4.1669 0.16001-9.1088l0.0366-8.9854-3.9276-0.15323c-3.6472-0.14229-3.5403-0.15093 1.4964-0.1211 4.6792 0.02771 5.5874 0.1009 6.6146 0.53306 2.4476 1.0298 3.5266 2.2733 3.793 4.3715 0.0831 0.65484 0.18647 30.956 0.22962 67.336l0.0784 66.146-0.59942 0.96392c-1.6115 2.5914-2.8525 2.8886-11.755 2.815-3.8282-0.0316-15.017-0.12094-24.864-0.19843zm-55.121-0.28537c1.9042-0.2966 3.0427-0.29204 3.0427 0.0122 0 0.15787-0.88043 0.25033-2.1828 0.22923-2.0565-0.0333-2.1062-0.0473-0.8599-0.2414zm-9.5911-0.17733c0.40019-0.0606 1.055-0.0606 1.4552 0 0.40019 0.0606 0.0728 0.11022-0.7276 0.11022-0.80037 0-1.1278-0.0496-0.72761-0.11022zm28.443-4e-3c0.61847-0.0557 1.6305-0.0557 2.249 0s0.11245 0.10128-1.1245 0.10128-1.7429-0.0456-1.1245-0.10128zm11.112-2e-3c0.90951-0.0517 2.3978-0.0517 3.3073 0 0.90951 0.0517 0.16537 0.0939-1.6536 0.0939s-2.5632-0.0423-1.6536-0.0939zm1.9182-9.7926c-0.63237-0.3159-0.9505-0.67237-1.0032-1.1241l-0.0771-0.66145 0.34945 0.66145c0.50521 0.95629 1.6137 1.4355 2.3764 1.0273 0.97395-0.52124 3.9477-2.8585 5.3078-4.1717 0.69564-0.67166 1.8863-1.5189 2.6458-1.8827 1.1994-0.57444 1.3919-0.77457 1.464-1.5214 0.0456-0.47295 0.0456-0.86169 0-0.86388-0.0456-2e-3 -0.55916-0.17556-1.1412-0.38526-0.86455-0.31147-0.93589-0.38341-0.3896-0.3929 0.99124-0.0172 1.8455 0.6904 1.8408 1.5248-6e-3 1.0106-0.23657 1.2692-1.688 1.8913-0.71123 0.30487-2.1608 1.3689-3.2476 2.3839-1.7526 1.6367-4.8985 3.9786-5.343 3.9776-0.0926-2.2e-4 -0.58501-0.20858-1.0943-0.46302zm13.106-0.63195c-0.44809-0.53252-0.63276-0.98372-0.51437-1.2568 0.10158-0.23428 0.28131-0.90222 0.39941-1.4843 0.16405-0.80862 0.1851-0.64295 0.0892 0.70207-0.11982 1.6809-0.0924 1.7851 0.60687 2.3067 0.4028 0.30047 0.59411 0.55009 0.42514 0.5547-0.16896 5e-3 -0.62178-0.36548-1.0063-0.82242zm2.6364 0.52191c0.29104-0.16104 1.6734-1.4076 3.0718-2.7701s2.7081-2.4765 2.9104-2.4755c0.20229 1e-3 0.0477 0.21286-0.34358 0.4709-0.39126 0.25803-1.2247 1.0225-1.8521 1.6988-1.4845 1.6002-3.6016 3.387-4.0011 3.3768-0.17305-4e-3 -0.0765-0.1398 0.21453-0.30084zm18.505-0.187c-0.86886-0.52984-2.7619-2.6074-2.7619-3.031 0-0.14116 0.34438 0.21874 0.76527 0.79977 0.71755 0.99055 1.4154 1.6347 2.5795 2.3808 0.80643 0.51693 0.29481 0.3856-0.58285-0.1496zm-35.291-2.2822c-4e-3 -0.14553 0.1652-0.74084 0.3749-1.3229s0.38651-0.86364 0.39289-0.62569c6e-3 0.23795-0.16232 0.83327-0.3749 1.3229-0.21259 0.48965-0.38939 0.77121-0.39289 0.62569zm-17.543-0.31902c0.32742-0.0631 0.86321-0.0631 1.1906 0s0.0595 0.11466-0.59532 0.11466c-0.65484 0-0.92273-0.0516-0.59531-0.11466zm-3.1703-0.26961c0.47555-0.0589 1.1899-0.0577 1.5875 3e-3 0.39758 0.0604 8e-3 0.10855-0.86463 0.10706-0.87313-2e-3 -1.1984-0.0509-0.72287-0.10976zm6.697-0.0548c2.6061-0.48586 3.8874-1.5732 4.2306-3.59l0.18006-1.0583 0.0331 0.95306c0.0672 1.9351-1.9156 3.6568-4.4148 3.8335l-1.2406 0.0877zm-10.017-0.35033c-1.6967-0.54372-2.4466-1.7928-2.3873-3.9764l0.0518-1.909 0.0932 1.8147c0.13654 2.658 0.96244 3.6064 3.5937 4.1267 0.88319 0.17463 0.94536 0.21875 0.31052 0.22033-0.43657 1e-3 -1.1844-0.12322-1.6619-0.27625zm56.35-0.85838c5e-3 -0.43656 0.0647-0.58312 0.13177-0.32569 0.0671 0.25743 0.0627 0.61462-0.01 0.79375-0.0725 0.17913-0.12736-0.0315-0.12197-0.46806zm-32.282-0.98337c-0.1722-0.1722-0.31309-0.49436-0.31309-0.71592 0-0.27652 0.1329-0.21308 0.42387 0.20232 0.46424 0.66281 0.3887 1.0131-0.11078 0.5136zm23.698-0.2155c0.40101-0.16119 0.60707-0.47954 0.63134-0.97541 0.0316-0.64558 0.0504-0.66111 0.15261-0.12626 0.13599 0.71153-0.33227 1.3817-0.94864 1.3577-0.29141-0.0113-0.23817-0.0941 0.16469-0.25606zm-10.386-1.0588c-0.22574-1.3361 0.31073-2.2531 1.4666-2.507 0.4519-0.0993 0.89249-0.1096 0.9791-0.023 0.0866 0.0866-0.0844 0.15746-0.38011 0.15746-0.29567 0-0.86223 0.25537-1.259 0.56749-0.65132 0.51232-0.70464 0.67948-0.54864 1.7198 0.21761 1.4511-0.0143 1.5277-0.25797 0.0853zm11.147-1.2196c-0.18282-0.56774-1.0418-1.0334-2.2816-1.2369-0.46842-0.0769-0.3762-0.11908 0.31598-0.1446 1.0979-0.0405 2.4967 0.92431 2.2768 1.5703-0.0916 0.26911-0.18124 0.2147-0.31119-0.18884zm-24.771-0.0243c0-0.13909 0.25025-0.4797 0.5561-0.75692 0.48822-0.44251 1.013-0.50741 4.2995-0.53177l3.7434-0.0277-3.7943 0.16004c-3.5726 0.15069-3.8238 0.19653-4.2995 0.78466-0.27788 0.34354-0.50523 0.51082-0.50523 0.37174zm-9.1967-2.3193c-0.047-2.429 0.35969-3.5719 1.2712-3.5719 0.1782 0 0.0147 0.24331-0.36336 0.54069-0.637 0.50105-0.69375 0.71918-0.77452 2.9766l-0.0872 2.4359zm27.387 0.73932c0.32742-0.0631 0.8632-0.0631 1.1906 0s0.0595 0.11466-0.59531 0.11466c-0.65485 0-0.92274-0.0516-0.59531-0.11466zm-44.072-1.3346c-0.034-0.99082-0.1994-1.5408-0.57686-1.9182-0.29104-0.29104-0.41285-0.52917-0.27068-0.52917 0.59252 0 1.0944 1.2892 0.99526 2.5568l-0.10003 1.2797zm-9.7262-2.9463c-0.89501-0.54577-1.7146-2.0084-1.6703-2.9806 0.0179-0.39346 0.11642-0.23068 0.26843 0.44371 0.4937 2.1904 1.4307 2.7249 4.9949 2.8495l2.249 0.0786-2.5135 0.0529c-2.057 0.0433-2.6616-0.0374-3.3285-0.44408zm7.0988 0.31654c0.25466-0.0666 0.67138-0.0666 0.92604 0 0.25466 0.0665 0.0463 0.121-0.46302 0.121s-0.71768-0.0545-0.46302-0.121zm25.334-0.60139 4.3656-0.14227 0.487-0.92604c0.47737-0.90776 0.48349-0.9104 0.30945-0.13377-0.32447 1.448-0.37304 1.4612-5.1283 1.4005l-4.3994-0.0562zm5.3432-2.7881c5e-3 -0.43657 0.0647-0.58313 0.13177-0.3257 0.0671 0.25743 0.0627 0.61462-0.01 0.79375-0.0725 0.17913-0.12736-0.0315-0.12197-0.46805zm30.198-0.61031c-1.5614-0.63462-4.0741-3.1957-4.0477-4.1258 5e-3 -0.16006 0.28521 0.15947 0.62371 0.71008 1.6057 2.6118 3.036 3.4114 6.5118 3.6407l2.5135 0.16577-2.249 0.0288c-1.5604 0.02-2.5868-0.10848-3.3524-0.41962zm-69.883-5.0782c-0.0837-7.9404-0.0187-8.0284 6.0358-8.1633 4.9838-0.11108 5.0129-0.12692 5.2945-2.8879l0.18166-1.7811 0.0376 1.3976c0.0473 1.7619-0.51399 3.1694-1.3341 3.345-0.33701 0.0721-2.2796 0.17091-4.3169 0.21949-5.5675 0.13275-5.4901 0.0312-5.6987 7.4734l-0.14831 5.2917zm39.993 2.3812c0-1.3824 0.0446-1.948 0.0991-1.2568 0.0545 0.69123 0.0545 1.8223 0 2.5136-0.0545 0.69122-0.0991 0.12567-0.0991-1.2568zm25.228-3.1751c-0.11594-0.44336-0.28947-0.52169-0.8935-0.4033-0.60946 0.11945-0.65067 0.10017-0.22044-0.10313 0.82925-0.39186 1.1413-0.33039 1.3292 0.26186 0.0958 0.30201 0.119 0.60439 0.0514 0.67195-0.0676 0.0676-0.18759-0.12475-0.26673-0.42738zm-3.5577-0.19006c0.40218-0.0608 0.99749-0.0592 1.3229 4e-3 0.32543 0.0628-4e-3 0.11256-0.73124 0.11058-0.7276-2e-3 -0.99385-0.0534-0.59167-0.11419zm-2.451-0.49505c-2.3612-1.0189-4.273-4.0558-4.1971-6.6672 0.0359-1.2372 0.0377-1.2346 0.22454 0.34066 0.35948 3.0301 2.1117 5.4352 4.6037 6.319 0.59877 0.21235 0.91007 0.39084 0.69179 0.39663-0.21828 6e-3 -0.81359-0.16929-1.3229-0.38908zm-19.23-1.4318c0-0.94589 0.048-1.3328 0.10671-0.8599 0.0587 0.47295 0.0587 1.2468 0 1.7198-0.0587 0.47295-0.10671 0.086-0.10671-0.85989zm-0.61385-2.7337c-0.21828-0.45824-0.80144-1.1022-1.2959-1.431-0.96631-0.64256-0.95393-0.7677 0.0315-0.3187 0.6764 0.30819 1.8987 1.9329 1.7534 2.3307-0.0507 0.13872-0.27073-0.12272-0.48901-0.58097zm-10.301-2.6714c-0.332-0.3534-0.54075-0.79988-0.46388-0.99218 0.0997-0.24938 0.14575-0.22863 0.16065 0.0724 0.0255 0.51511 0.75965 1.1975 1.4761 1.3721 0.51293 0.12496 0.51231 0.12986-0.02 0.15961-0.30205 0.0169-0.82083-0.25846-1.1528-0.61186zm3.488 0.44702c0.83674-0.0525 2.206-0.0525 3.0427 0 0.83675 0.0525 0.15214 0.0955-1.5214 0.0955s-2.3581-0.043-1.5214-0.0955zm22.959-2.7413c-7e-3 -0.45704 1.2165-2.2592 1.9342-2.8502 0.69977-0.57622 0.5131-0.14537-0.34321 0.79217-0.4313 0.47222-0.96437 1.2237-1.1846 1.67-0.22022 0.44627-0.40311 0.6209-0.40643 0.38807zm-27.441-1.9579c2e-3 -0.87313 0.0509-1.1984 0.10977-0.72287 0.0589 0.47555 0.0577 1.1899-3e-3 1.5875-0.0604 0.39758-0.10855 8e-3 -0.10707-0.86463zm-16.46-2.0064c0.0145-0.64271 0.12636-1.4662 0.24856-1.83 0.13933-0.41478 0.16576-0.0201 0.0709 1.0583-0.17718 2.0136-0.35725 2.4486-0.31941 0.7717zm46.828 0.39064c0.44388-0.53485 2.7934-1.1676 4.1917-1.1289 1.0522 0.0291 0.96887 0.0641-0.64333 0.27021-1.0186 0.1302-2.3023 0.45922-2.8525 0.73115-0.66278 0.32756-0.89764 0.37059-0.6959 0.12751zm22.576-0.19977c-0.0849-0.22137-0.0987-0.6178-0.0305-0.88097 0.0779-0.30054 0.13539-0.19642 0.15467 0.27999 0.0265 0.65553 0.11149 0.7354 0.62601 0.58854 0.32742-0.0935 1.1906-0.22148 1.9182-0.28448 1.2183-0.10549 1.2392-0.0982 0.26459 0.0926-0.58209 0.11391-1.4454 0.29705-1.9184 0.40698-0.65707 0.15269-0.89658 0.10485-1.0146-0.20262zm-53.387-1.1498c-0.40773-3.0637-1.7164-3.6587-7.9741-3.6252-4.9134 0.0263-6.1504 0.26526-7.0065 1.3537-0.29332 0.37289-0.53331 0.56362-0.53331 0.42384 0-0.32798 1.0044-1.2413 1.8521-1.6842 0.47068-0.24591 2.0732-0.35083 5.5562-0.3638 5.1054-0.019 6.1549 0.17037 7.4525 1.3447 0.49032 0.44373 1.1649 2.9486 0.95936 3.562-0.0676 0.2017-0.2054-0.25329-0.30625-1.0111zm58.106 0.79856c0.25466-0.0665 0.67138-0.0665 0.92604 0 0.25467 0.0666 0.0463 0.121-0.46302 0.121s-0.71768-0.0545-0.46302-0.121zm-21.233-0.26924c0.3638-0.0632 0.82631-0.31492 1.0278-0.55928 0.33856-0.41063 0.3536-0.40757 0.19844 0.0404-0.0923 0.26656-0.16789 0.53445-0.16789 0.59531 0 0.0609-0.38695 0.0944-0.85989 0.0746-0.71457-0.0299-0.7481-0.0555-0.19844-0.15101zm1.3261-1.2825c-0.0127-1.1171 3.2596-4.3835 4.3481-4.3402 0.15341 6e-3 -0.0909 0.21446-0.54297 0.46302-1.3362 0.73472-2.4638 1.8155-3.1545 3.0236-0.35611 0.62286-0.6489 1.007-0.65065 0.85355zm14.167-1.1477c-0.47751-0.92342-2.1806-2.3161-3.3164-2.7121-0.4545-0.15844-0.77064-0.34379-0.70255-0.41188 0.51753-0.51753 4.6657 2.6997 4.6657 3.6187 0 0.47556-0.23982 0.2921-0.6467-0.49471zm-7.4856-3.658c0.40219-0.0608 0.9975-0.0592 1.3229 4e-3 0.32542 0.0628-4e-3 0.11256-0.73124 0.11058-0.72761-2e-3 -0.99386-0.0534-0.59168-0.11419zm-18.921-11.65c5.5662-0.0399 14.674-0.0399 20.241 0s1.012 0.0725-10.12 0.0725-15.686-0.0326-10.12-0.0725zm-40.339-0.45008c-3.3108-1.0347-6.4578-4.2306-6.396-6.4953 0.0148-0.5433 0.0635-0.49603 0.27256 0.26458 0.88012 3.2024 3.9044 5.7036 7.6353 6.3144 1.105 0.18093 1.2324 0.24146 0.52916 0.2515-0.50932 7e-3 -1.4278-0.14357-2.041-0.33521zm-6.5639-29.382c2e-5 -12.224 0.0324-17.186 0.072-11.027 0.0396 6.1592 0.0396 16.16-3e-5 22.225-0.0396 6.0646-0.072 1.0253-0.072-11.198zm71.51 8.4122c0.32742-0.0631 0.8632-0.0631 1.1906 0s0.0595 0.11467-0.59531 0.11467c-0.65484 0-0.92273-0.0516-0.59531-0.11467zm9.9793-17.276c0-8.0764 0.0336-11.38 0.0747-7.3422 0.0411 4.0382 0.0411 10.646 0 14.684s-0.0747 0.73422-0.0747-7.3422zm-81.549-14.949c3e-3 -0.58208 0.0571-0.78905 0.1204-0.45994s0.0609 0.80537-5e-3 1.0583c-0.0662 0.25296-0.118-0.01632-0.11507-0.5984zm81.16-0.24428c0-0.683-1.309-1.9479-2.3168-2.2388l-0.99044-0.28588 0.92604 0.12701c0.6133 0.08411 1.2164 0.43868 1.7859 1.0499 0.74541 0.8 1.1354 1.7244 0.7276 1.7244-0.0728 0-0.13229-0.16946-0.13229-0.37657zm-80.698-1.9035c0-0.14552 0.17481-0.4957 0.38846-0.77817 0.21365-0.28247 0.38846-0.39453 0.38846-0.24901s-0.17481 0.4957-0.38846 0.77817c-0.21365 0.28248-0.38846 0.39453-0.38846 0.24901zm69.93-0.82772c1.4264-0.04767 3.6886-0.04746 5.0271 5.29e-4 1.3385 0.04792 0.17146 0.08692-2.5934 0.08666-2.7649-2.54e-4 -3.86-0.03946-2.4336-0.08713zm-68.909-1.0308c1.0379-2.0291 3.5667-3.0619 7.7102-3.1491l3.3073-0.06961-3.3073 0.19879c-3.8181 0.2295-4.7687 0.567-6.712 2.383-0.74257 0.69394-1.1653 0.96368-0.99816 0.63693zm78.618-2.4759c-0.48365-0.31256-0.0659-0.31256 0.66146 0 0.34891 0.14993 0.39398 0.23234 0.13229 0.24194-0.21828 8e-3 -0.57547-0.10087-0.79375-0.24194zm-2.4474-0.45131c0.32743-0.06307 0.86321-0.06307 1.1906 0 0.32742 0.06306 0.0595 0.11466-0.59531 0.11466-0.65485 0-0.92274-0.0516-0.59532-0.11466zm-56.753-0.27556c1.8554-0.04548 4.8915-0.04548 6.7469 0s0.33734 0.08269-3.3734 0.08269-5.2288-0.03721-3.3734-0.08269zm27.52 0.0078c0.40218-0.06082 0.99749-0.05919 1.3229 0.0036 0.32542 0.0628-4e-3 0.11256-0.73124 0.11057-0.7276-0.0021-0.99386-0.05337-0.59167-0.11419zm7.6693-0.0083c3.1651-0.04221 8.3443-0.04221 11.509 0s0.57547 0.07674-5.7547 0.07674-8.9198-0.03453-5.7547-0.07674zm-59.267-3.6694c-0.32742-0.23669-0.59531-0.61046-0.59531-0.83062 0-0.26184 0.18967-0.15916 0.54837 0.29685 0.58072 0.73827 1.489 0.89982 2.3794 0.42325 0.91367-0.48898 0.70792-2.4384-0.34812-3.2984l-0.8599-0.70022 0.82783 0.40667c0.45531 0.22367 0.9018 0.59941 0.99219 0.83497 0.2362 0.61552 0.19504 2.3082-0.0661 2.7202-0.35086 0.55341-2.1866 0.64735-2.8784 0.14729zm4.6082-0.01302c-0.097-0.09701-0.17457-0.30537-0.17234-0.46302 2e-3 -0.15855 0.10263-0.13118 0.22466 0.06126 0.14257 0.22481 0.63256 0.31842 1.385 0.26458l1.1644-0.0833 0.082-1.4472c0.0644-1.1372-0.0172-1.5197-0.3813-1.7859-1.0413-0.76143-2.297-0.14675-2.551 1.2487-0.1181 0.6489-0.12107 0.64764-0.15642-0.06615-0.0722-1.4588 1.5584-2.2546 2.8155-1.3741 0.59471 0.41655 0.83607 2.3381 0.42744 3.4029-0.16411 0.42766-2.4569 0.62327-2.838 0.24213zm4.3744-0.1411c-0.47452-0.47452-0.40366-2.9981 0.0983-3.5001 0.57784-0.57784 1.8618-0.51948 2.4946 0.11339 0.54416 0.54416 0.73662 1.2178 0.26458 0.92604-0.14552-0.08994-0.26458-0.32235-0.26458-0.51648 0-0.70634-1.8329-0.93803-2.3634-0.29875-0.17948 0.21625-0.27734 0.97339-0.23084 1.7859l0.0807 1.4105h1.3645c0.75046 0 1.309 0.0893 1.2412 0.19844-0.19985 0.3216-2.3392 0.22673-2.685-0.11906zm5.5033 0.08352 1.4552-0.16289 0.0807-1.4105c0.0956-1.6704-0.22327-2.1613-1.4036-2.1613-1.1299 0-1.4032 0.38132-1.5227 2.1247l-0.0992 1.4472-0.0489-1.5025c-0.0575-1.7652 0.34429-2.334 1.6487-2.334 1.3289 0 1.7861 0.68986 1.6898 2.5499l-0.0802 1.5511-3.175 0.0612zm2.9104-1.6238c0-1.8393 0.64574-2.4513 2.0612-1.9535 0.67142 0.23613 0.71694 0.35252 0.71694 1.8333 0 1.5719-5e-3 1.5814-0.79375 1.6194-0.75418 0.03639-0.75748 0.03222-0.0661-0.08372 0.68796-0.11537 0.72761-0.1992 0.72761-1.5386 0-1.3631-0.0304-1.4233-0.80459-1.5933-1.1518-0.25298-1.5767 0.21457-1.5767 1.7352 0 0.9881 0.10309 1.2981 0.46302 1.3921 0.34843 0.09106 0.31569 0.1286-0.13229 0.15169-0.55485 0.02861-0.59532-0.0776-0.59532-1.5625zm-18.126-0.49828c0.15998-1.05 0.55888-1.6127 1.1431-1.6127 0.33511 0 0.3183 0.07074-0.0873 0.36729-0.27626 0.20201-0.65773 0.76755-0.84771 1.2568l-0.34542 0.88948zm53.514-9.4724c0.32742-0.06307 0.86321-0.06307 1.1906 0 0.32742 0.06306 0.0595 0.11466-0.59532 0.11466-0.65484 0-0.92273-0.0516-0.59531-0.11466z" fill="#04937d"/>
    <path d="m27.327 218.85c15.243-0.0377 40.187-0.0377 55.43 0 15.243 0.0377 2.7715 0.0686-27.715 0.0686-30.487 0-42.958-0.0309-27.715-0.0686zm89.826 0.0117c0.32742-0.0631 0.8632-0.0631 1.1906 0 0.32743 0.0631 0.0595 0.11467-0.59531 0.11467-0.65484 0-0.92273-0.0516-0.59531-0.11467zm-121.53-1.0185c-0.48427-0.38798-0.47582-0.39349 0.14787-0.0965 0.8099 0.38572 0.96 0.50793 0.62383 0.50793-0.14196 0-0.48922-0.18516-0.7717-0.41147zm130.72-1.9698c0.56839-0.58208 1.093-1.0583 1.1657-1.0583 0.0728 0-0.33276 0.47625-0.90115 1.0583-0.56839 0.58209-1.093 1.0583-1.1657 1.0583-0.0728 0 0.33275-0.47625 0.90114-1.0583zm-133.89-0.33073-1.0459-1.1245 1.1245 1.0459c0.61847 0.57524 1.1245 1.0812 1.1245 1.1245 0 0.20018-0.23041-1.3e-4 -1.2031-1.0459zm99.099-0.72201 29.766-0.13788 1.1127-0.59468c1.4449-0.77224 2.5099-2.122 2.9187-3.6991l0.32724-1.2625-0.1017 1.1102c-0.14476 1.5801-1.3283 3.2112-2.9268 4.0337l-1.3157 0.67698-59.546 0.012zm37.632-4.5035c0-0.50932 0.0544-0.71768 0.121-0.46302s0.0666 0.67138 0 0.92604c-0.0666 0.25467-0.121 0.0463-0.121-0.46302zm-139.4-1.9844c-7.9e-4 -1.3097 0.0439-1.8788 0.0994-1.2648 0.0555 0.61407 0.0562 1.6856 2e-3 2.3812-0.0548 0.69562-0.10021 0.1932-0.10101-1.1165zm136.03-76.068c0-42.128 0.0306-59.363 0.0679-38.298 0.0374 21.064 0.0374 55.533 0 76.597s-0.0679 3.8298-0.0679-38.298zm-38.676 74.943c3.1749-0.0422 8.2946-0.0422 11.377 1.1e-4 3.0825 0.0423 0.48481 0.0769-5.7726 0.0768-6.2574-6e-5 -8.7794-0.0347-5.6045-0.0769zm-60.607-0.26477c8.2583-0.0388 21.772-0.0388 30.03 0s1.5015 0.0706-15.015 0.0706c-16.517 0-23.273-0.0317-15.015-0.0706zm79.706 0.0664c0.63593-0.21692 4.1273-0.31185 3.7981-0.10327-0.1972 0.12496-1.192 0.21962-2.2106 0.21036-1.0186-9e-3 -1.733-0.0574-1.5875-0.10709zm5.4416-1.0514c1.4761-0.7691 3.0254-2.4386 3.7824-4.0759l0.5655-1.223 0.28096-72.231-0.016 72.231-0.57849 1.2524c-1.0581 2.2906-3.5918 4.7305-4.8686 4.6884-0.20554-7e-3 0.17004-0.29563 0.83461-0.64191zm-9.4104-2.2654c3.4925-0.0924 6.6476-0.26676 7.0115-0.38757 1.6447-0.54615 3.1371-2.2007 3.4603-3.8365 0.17943-0.90803 0.18355-0.9106 0.21206-0.13229 0.0344 0.93887-0.86219 2.5062-1.8955 3.3136-1.394 1.0891-3.0571 1.3141-9.3175 1.2606l-5.8208-0.0498zm-21.63-0.1887c2.3647-0.0439 6.2342-0.0439 8.599 0 2.3647 0.0438 0.42995 0.0797-4.2995 0.0797s-6.6642-0.0359-4.2995-0.0797zm-70.405-0.26506c-0.0678-0.10914 1.2646-0.16727 2.961-0.12918 5.6906 0.12779 6.2935 0.22527 1.7109 0.27664-2.5016 0.028-4.604-0.0383-4.6718-0.14746zm22.251 1.2e-4c4.9841-0.0403 13.14-0.0403 18.124 0s0.9062 0.0732-9.062 0.0732c-9.9682 0-14.046-0.0329-9.062-0.0732zm-23.611-1.1218c-0.4168-0.43504-0.70697-0.83324-0.64482-0.88488 0.0622-0.0516 0.45216 0.3043 0.86667 0.79099 0.93591 1.0988 0.7972 1.1576-0.22185 0.0939zm-1.063-69.588c0-37.326 0.0307-52.596 0.0682-33.933 0.0375 18.663 0.0375 49.203 0 67.866-0.0375 18.663-0.0682 3.3933-0.0682-33.933zm83.213 61.679c-0.50933-0.09 1.2171-0.1652 3.8364-0.16715 2.7045-2e-3 4.248 0.0753 3.5719 0.17883-1.4461 0.22149-6.1304 0.2141-7.4083-0.0117zm-2.8443-0.71512c-0.47295-0.20683-0.8599-0.44798-0.8599-0.53589 0-0.0879 0.20836-0.0715 0.46302 0.0365 0.25466 0.10799 0.87974 0.35362 1.3891 0.54586 0.55019 0.20767 0.71127 0.34548 0.39688 0.33956-0.29104-5e-3 -0.91612-0.17919-1.3891-0.38602zm12.662 0.0565c3.6998-1.0834 5.5278-3.1808 5.5278-6.3424 0-2.0633-1.6861-4.1442-4.3334-5.3481-0.74534-0.33895-1.2004-0.62314-1.0113-0.63152 0.4857-0.0215 1.8274 0.69427 3.2745 1.7469 4.4623 3.246 2.1967 10.001-3.6183 10.789l-1.0583 0.14333zm-31.26-1.8201c0.64876-0.69122 1.2143-1.2568 1.2568-1.2568 0.19867 0-0.0114 0.23755-1.1796 1.334l-1.2568 1.1796zm16.555 0.55371c-1.0398-0.8179-2.2602-2.5888-2.2323-3.2392 0.0161-0.37372 0.10745-0.26519 0.2792 0.3315 0.14044 0.48791 0.8384 1.4702 1.551 2.1828 1.4139 1.4139 1.5191 1.6036 0.40206 0.72492zm-27.656-2.8228c1.944-1.8939 2.8498-2.5761 3.0951-2.3308 0.0925 0.0925 0.0204 0.16813-0.16019 0.16813-0.18058 0-1.0041 0.62522-1.83 1.3894-2.3295 2.1552-3.0175 2.6368-1.1048 0.7733zm7.0039 0.52405c-4e-3 -0.67733-0.0922-1.7078-0.19558-2.2898-0.1559-0.87762-0.1216-0.83244 0.20091 0.26458 0.4215 1.4338 0.51783 2.9381 0.20068 3.1341-0.10914 0.0674-0.20184-0.43153-0.20601-1.1089zm24.817 0.8341c0.25743-0.0671 0.61462-0.0627 0.79375 0.01 0.17913 0.0725-0.0315 0.12737-0.46806 0.12197-0.43656-5e-3 -0.58312-0.0647-0.32569-0.13177zm6.0804-6e-3c0.40018-0.0606 1.055-0.0606 1.4552 0 0.40018 0.0606 0.0728 0.11023-0.72761 0.11023-0.80036 0-1.1278-0.0496-0.7276-0.11023zm-44.773-0.47194c0-0.68818 0.43475-0.95199 0.80901-0.4909 0.29872 0.36804 0.30136 0.41674 0.0132 0.24321-0.22166-0.13348-0.44919-0.0767-0.59126 0.14765-0.12703 0.20054-0.23095 0.24556-0.23095 0.10004zm14.93-0.14989c-0.0959-0.1552-0.10295-0.35364-0.0156-0.44097 0.0873-0.0873 0.15879-7e-3 0.15879 0.1782 0 0.19585 0.17197 0.27099 0.41061 0.17942 0.23546-0.0904 0.34167-0.046 0.24897 0.10398-0.21174 0.3426-0.58418 0.33303-0.80275-0.0206zm-33.002-0.17336c0.46969-0.0585 1.3031-0.0594 1.8521-2e-3 0.54895 0.0573 0.16465 0.10509-0.85399 0.10627-1.0186 1e-3 -1.4678-0.0457-0.99809-0.10414zm20.842-1.132c0.71666-0.7276 1.3626-1.3229 1.4353-1.3229 0.0728 0-0.45407 0.59531-1.1707 1.3229-0.71667 0.72761-1.3626 1.3229-1.4353 1.3229-0.0728 0 0.45407-0.59531 1.1707-1.3229zm16.801 1.2401c0-0.0455 0.38695-0.43249 0.85989-0.8599l0.8599-0.7771-0.77711 0.8599c-0.72437 0.80154-0.94268 0.98151-0.94268 0.7771zm-41.073-0.36892c0.32912-0.0633 0.80537-0.0609 1.0583 5e-3 0.25297 0.0662-0.0163 0.11801-0.59839 0.11507-0.58209-3e-3 -0.78906-0.0571-0.45994-0.12041zm57.355-0.49729c-0.24664-0.37642-0.40291-0.72995-0.34725-0.78561 0.0557-0.0557 0.31003 0.25233 0.56527 0.68442 0.57023 0.96532 0.39996 1.0444-0.21802 0.10119zm-17.399-1.6556 0.60211-0.53389-0.73441-0.11088c-0.59902-0.0904-0.55151-0.11818 0.25779-0.15052 1.2119-0.0484 1.2262 0.0338 0.13229 0.75904-0.76141 0.50484-0.79094 0.50899-0.25778 0.0362zm-4.0648-0.30577c0.0201-0.28621 0.35919-0.4029 1.2161-0.41848l1.1882-0.0216-1.1077 0.10157c-0.60925 0.0559-1.1565 0.24418-1.2161 0.41849s-0.0958 0.13833-0.0805-0.08zm-38.738-3.9941c0-5.9955-0.0673-6.0601-6.3095-6.0601-2.889 0-4.2654-0.0974-4.4855-0.3175-0.39027-0.39027-0.44414-10.978-0.059-11.589 0.19836-0.31435 1.0916-0.42438 4.2954-0.52917 5.678-0.1857 5.7057-0.20811 6.179-5.006 0.53861-5.4604 0.9304-5.8425 5.9888-5.8409 4.5874 1e-3 5.5003 0.67819 5.8875 4.3646 0.5115 4.8701 1.2133 6.2726 3.5199 7.0338 0.53681 0.17717 1.1288 0.47493 1.3156 0.6617 0.22184 0.22184 1.1226 0.3425 2.5978 0.34798 1.242 5e-3 2.3776 0.0822 2.5236 0.17241 0.14598 0.0902 0.43878 0.0202 0.65068-0.15569 0.83753-0.69509 1.2345 1.2983 1.1362 5.7053-0.11639 5.2203 0.092 4.9756-4.0391 4.7428-4.0845-0.23019-4.9891 2e-3 -6.5588 1.6796l-1.187 1.269-0.14269 3.0299c-0.20314 4.3136-0.66057 5.1959-2.0316 3.9186-0.55781-0.51968-0.80462-0.55372-2.9887-0.41222-1.606 0.10405-2.5289 0.28838-2.8362 0.56646-0.29971 0.27123-0.96869 0.41221-1.956 0.41221h-1.5005zm8.2044-1.855c0.14477-3.5872 0.11961-3.517 1.9563-5.4618l1.062-1.1245h4.9169v-3.5626c0-4.2174-0.0245-4.2513-3.0072-4.1749-3.5492 0.0909-4.0218-0.50666-4.2661-5.3934-0.23356-4.6723-0.4433-4.9964-3.2276-4.9875-2.4917 8e-3 -2.6041 0.20208-2.843 4.908-0.26983 5.3156-0.24882 5.2964-6.0472 5.5194-3.0716 0.11813-3.9667 0.23581-4.1631 0.54736-0.13764 0.21828-0.25207 1.9149-0.2543 3.7703l-4e-3 3.3734 3.5057 0.0116c6.4314 0.0212 7.1644 0.61319 7.2984 5.8935 0.0495 1.9493 0.21328 3.6376 0.37146 3.8282 0.19875 0.23948 0.92055 0.31829 2.425 0.26478l2.1421-0.0762zm-3.3096-7.9663c-1.5758-0.90985-1.9298-3.5574-0.64724-4.8399 1.7314-1.7314 3.8222-0.91079 3.8222 1.5002 0 2.7927-1.461 4.3295-3.175 3.3398zm16.155 1.0559c0.0417-0.0417 0.10529-1.548 0.14137-3.3473l0.0656-3.2716-1.0372-0.36218c-1.5592-0.54447-1.6986-0.3915-1.6986 1.8636 0 1.0909-0.16978 2.4936-0.37729 3.1172-0.67495 2.0282-0.65177 2.1716 0.37729 2.334 0.78192 0.12342 2.2678-0.0726 2.5289-0.33371zm5.3425 12.308c0.32742-0.0631 0.8632-0.0631 1.1906 0 0.32742 0.0631 0.0595 0.11466-0.59532 0.11466-0.65484 0-0.92273-0.0516-0.59531-0.11466zm-2.5526-0.6143c-0.0299-0.73904 0.6275-1.8448 1.0968-1.8448 0.16508 0 0.0887 0.15464-0.16983 0.34365-0.25848 0.18901-0.56671 0.75456-0.68494 1.2568-0.17715 0.75248-0.21973 0.79547-0.24205 0.24438zm13.731-0.37399c0-0.35521 0.0975-0.70611 0.21671-0.77978 0.11919-0.0737 0.1652 0.21697 0.10226 0.64585-0.13879 0.94559-0.31897 1.0212-0.31897 0.13393zm23.133-0.38362c0.18877-0.30544 1.2085-0.92146 1.2085-0.73007 0 0.0611-0.31231 0.31581-0.69403 0.56592-0.38172 0.25012-0.61321 0.32398-0.51443 0.16415zm-46.323-2.2778c-7.9e-4 -1.3097 0.0439-1.8788 0.0994-1.2648s0.0562 1.6856 2e-3 2.3812c-0.0547 0.69561-0.10008 0.19319-0.10089-1.1165zm43.156 1.013c0.21937-0.46147 0.7876-1.104 1.2627-1.4278l0.86389-0.58873-0.79375 0.76631c-0.43657 0.42147-1.0048 1.064-1.2627 1.4278-0.46728 0.65906-0.46753 0.65842-0.0701-0.17758zm6.0343-6e-3c0.25744-0.0671 0.61462-0.0627 0.79375 0.01 0.17913 0.0725-0.0315 0.12736-0.46805 0.12197-0.43656-5e-3 -0.58313-0.0647-0.3257-0.13177zm-30.826-0.26836c0.32912-0.0633 0.80537-0.0609 1.0583 5e-3 0.25297 0.0662-0.0163 0.118-0.5984 0.11507-0.58208-3e-3 -0.78905-0.0571-0.45993-0.12041zm8.5959-8e-3c0.83674-0.0525 2.206-0.0525 3.0427 0 0.83674 0.0525 0.15213 0.0955-1.5214 0.0955s-2.3581-0.043-1.5214-0.0955zm21.96-2.9044c0.40018-0.0606 1.055-0.0606 1.4552 0 0.40019 0.0606 0.0728 0.11022-0.7276 0.11022-0.80036 0-1.1278-0.0496-0.7276-0.11022zm8.3375 2e-3c0.32911-0.0633 0.80536-0.0609 1.0583 5e-3 0.25296 0.0662-0.0163 0.118-0.5984 0.11506-0.58208-3e-3 -0.78905-0.0571-0.45993-0.1204zm-56.832-1.0923c0.17431-0.33989 0.38949-0.54541 0.47818-0.45672 0.0887 0.0887-0.0539 0.36677-0.31693 0.61797-0.45713 0.43662-0.46423 0.42953-0.16125-0.16125zm-19.173-0.30807-1.0583-0.18949 0.92604-0.0335c0.50932-0.0184 1.1046 0.0819 1.3229 0.22299 0.43292 0.27978 0.37196 0.27978-1.1906 0zm-2.712-0.18239c0.25466-0.0666 0.67138-0.0666 0.92604 0 0.25466 0.0665 0.0463 0.121-0.46302 0.121s-0.71768-0.0545-0.46302-0.121zm-16.398-1.4051c0-0.65485 0.0516-0.92274 0.11466-0.59531 0.0631 0.32742 0.0631 0.8632 0 1.1906s-0.11466 0.0595-0.11466-0.59531zm48.913-0.26459c0-0.21828 0.10232-0.635 0.22739-0.92604 0.14333-0.33354 0.22739-0.38245 0.22739-0.13229 0 0.21828-0.10233 0.635-0.22739 0.92604-0.14333 0.33355-0.22739 0.38245-0.22739 0.13229zm-38.864-2.7781c3e-3 -0.58208 0.0571-0.78905 0.1204-0.45994 0.0633 0.32912 0.0609 0.80537-5e-3 1.0583-0.0662 0.25296-0.118-0.0163-0.11507-0.5984zm74.352 0.74269c0.25743-0.0671 0.61462-0.0627 0.79375 0.01 0.17913 0.0725-0.0315 0.12737-0.46805 0.12197-0.43657-5e-3 -0.58313-0.0647-0.3257-0.13177zm-34.929-1.0073c3e-3 -0.58209 0.0571-0.78906 0.12041-0.45994 0.0633 0.32912 0.0609 0.80537-5e-3 1.0583-0.0662 0.25297-0.118-0.0163-0.11506-0.59839zm-49.472-0.92605c0-0.65484 0.0516-0.92273 0.11466-0.59531 0.0631 0.32742 0.0631 0.86321 0 1.1906s-0.11466 0.0595-0.11466-0.59532zm77.437 0.0661-0.9118-0.99219 0.99219 0.9118c0.92351 0.84868 1.1138 1.0726 0.9118 1.0726-0.0442 0-0.4907-0.44649-0.99219-0.99219zm10.09 0.92322c0.0606-0.0379 0.4079-0.30582 0.7717-0.59531l0.66146-0.52635-0.50403 0.59532c-0.27721 0.32742-0.62448 0.59531-0.7717 0.59531s-0.21806-0.031-0.15743-0.069zm21.535-20.172c3e-5 -11.06 0.0327-15.545 0.0726-9.9684 0.0399 5.5769 0.0399 14.626-4e-5 20.108-0.0399 5.4826-0.0726 0.91968-0.0725-10.14zm-19.415 18.008c0.30567-0.51807 0.60659-0.94194 0.66871-0.94194 0.188 0-0.67084 1.5417-0.95754 1.7189-0.14681 0.0907-0.0168-0.25891 0.28883-0.77697zm-6.9679-0.33532c0.32912-0.0633 0.80537-0.0609 1.0583 5e-3 0.25297 0.0662-0.0163 0.11801-0.59839 0.11507-0.58209-3e-3 -0.78906-0.0571-0.45994-0.12041zm-6.9757-1.0281c-0.21847-0.52287-0.36077-1.06-0.31622-1.1936 0.0445-0.13363 0.27414 0.29417 0.51021 0.95067 0.51115 1.4214 0.3715 1.5964-0.19399 0.24297zm-75.648-26.566c0-14.916 0.032-21.018 0.071-13.56 0.0391 7.458 0.0391 19.662 0 27.12-0.039 7.458-0.071 1.356-0.071-13.56zm49.666 25.268c5e-3 -0.43657 0.0647-0.58313 0.13178-0.3257 0.0671 0.25743 0.0627 0.61462-0.01 0.79375-0.0725 0.17913-0.12736-0.0315-0.12197-0.46805zm21.583-0.58863c0.47555-0.0589 1.1899-0.0577 1.5875 3e-3 0.39758 0.0604 9e-3 0.10855-0.86463 0.10707-0.87313-2e-3 -1.1984-0.0509-0.72287-0.10977zm3.7656-0.0574c0-0.22896-0.23379-0.2879-0.7276-0.18342-0.69495 0.14704-0.7005 0.1404-0.12366-0.14789 0.61658-0.30815 1.4392 0.0807 1.0321 0.48788-0.0994 0.0994-0.1808 0.029-0.1808-0.15657zm15.641-0.34614c-0.0354-0.83856 0.11014-0.87453 1.328-0.3283l0.89027 0.39931-0.96799-0.15963c-0.79753-0.13152-0.99015-0.0737-1.0938 0.3283-0.0852 0.33043-0.1357 0.25307-0.15649-0.23968zm2.9509 0.14737c0.25743-0.0671 0.61462-0.0627 0.79375 0.01 0.17913 0.0725-0.0315 0.12736-0.46806 0.12197-0.43656-5e-3 -0.58312-0.0647-0.32569-0.13177zm-25.661-0.85139c-1.0112-0.73253-2.1911-2.1132-2.1911-2.5639 0-0.11534 0.36669 0.28891 0.81487 0.89834s1.3114 1.4057 1.9182 1.7694c0.60685 0.36375 0.97239 0.66249 0.81232 0.66386-0.16006 1e-3 -0.76949-0.34409-1.3543-0.76772zm31.976-0.77623c1.2554-1.1165 1.9159-2.7394 2.1702-5.3327 0.0813-0.82873 0.0953-0.80521 0.13316 0.22386 0.0933 2.5329-1.1217 4.946-2.9764 5.9114-0.30422 0.15836-1e-3 -0.2028 0.67306-0.80258zm-89.954-1.0282c-0.0522-1.1252 0.62322-2.7729 1.3134-3.2039 0.82154-0.51307 0.99496-0.0841 0.23447 0.58003-0.78903 0.689-1.2671 1.6017-1.4062 2.6847l-0.10198 0.79375zm33.364-0.78304c0.25466-0.0666 0.67138-0.0666 0.92604 0 0.25466 0.0665 0.0463 0.121-0.46302 0.121s-0.71768-0.0545-0.46302-0.121zm53.909-0.47907c0.34178-0.36381 0.68094-0.66146 0.7537-0.66146 0.0728 0-0.14734 0.29765-0.48911 0.66146-0.34178 0.3638-0.68094 0.66146-0.7537 0.66146-0.0728 0 0.14734-0.29766 0.48911-0.66146zm-48.154 0.19669c0-0.15861-0.32323-0.68447-0.71829-1.1686-0.59068-0.72381-0.60983-0.78671-0.10779-0.35399 0.71309 0.61462 1.1996 1.4374 0.97981 1.6572-0.0846 0.0845-0.15373 0.024-0.15373-0.13465zm16.17-0.88413c-0.33855-0.97116-0.36057-3.0314-0.0407-3.8105 0.1288-0.31371 0.16104 0.13408 0.0792 1.0998-0.0779 0.91849-7e-3 2.0046 0.16223 2.4903 0.16515 0.47376 0.25398 0.90769 0.19738 0.96428-0.0566 0.0566-0.23572-0.27814-0.39806-0.74385zm-24.703-1.4904c0.61847-0.0557 1.6305-0.0557 2.249 0 0.61847 0.0557 0.11245 0.10128-1.1245 0.10128-1.2369 0-1.7429-0.0456-1.1245-0.10128zm51.182-0.46773c5e-3 -0.43656 0.0647-0.58312 0.13178-0.32569 0.0671 0.25743 0.0627 0.61462-0.01 0.79375-0.0725 0.17913-0.12737-0.0315-0.12197-0.46806zm-75.326 0.14658c2.0373-0.0806 3.8828-0.2447 4.101-0.36464 0.21828-0.11993 0.16576-0.0306-0.11672 0.19844-0.41877 0.33961-1.1759 0.40692-4.101 0.36464l-3.5874-0.0519zm85.102-2.5221c-0.43723-1.2091-1.7427-2.5246-3.242-3.2667-0.63896-0.31628-0.98156-0.57514-0.76134-0.57526 1.3005-7.9e-4 4.7742 3.526 4.4452 4.513-0.0525 0.15765-0.25139-0.14435-0.44187-0.67111zm-22.437-2.1224c1e-3 -1.1642 0.0475-1.6075 0.10337-0.9852 0.0559 0.62231 0.0551 1.5748-2e-3 2.1167-0.0569 0.54186-0.10259 0.0327-0.10163-1.1315zm-57.703 0c3e-3 -0.58209 0.0571-0.78906 0.12041-0.45994 0.0633 0.32912 0.0609 0.80537-5e-3 1.0583-0.0662 0.25297-0.118-0.0163-0.11506-0.59839zm16.14-0.79375c3e-3 -0.58209 0.0571-0.78906 0.12041-0.45994 0.0633 0.32912 0.0609 0.80537-5e-3 1.0583-0.0662 0.25297-0.11801-0.0163-0.11507-0.59839zm29.831 0.0216c0-0.24553 1.7709-1.1811 2.5135-1.3279 0.6185-0.12226 0.56396-0.0677-0.24704 0.24693-0.57243 0.22211-1.2366 0.58109-1.476 0.79774-0.41986 0.37996-0.79046 0.51273-0.79046 0.28319zm7.1438-1.3954c0.3638-0.0741 0.75982-0.27161 0.88004-0.43885 0.14611-0.20324 0.1832-0.17247 0.11188 0.0928-0.0602 0.22389-0.44376 0.41516-0.88004 0.43884-0.666 0.0362-0.68153 0.0233-0.11188-0.0928zm-2.1797-0.26857c0.32912-0.0633 0.80537-0.0609 1.0583 5e-3 0.25297 0.0662-0.0163 0.11801-0.59839 0.11507-0.58209-3e-3 -0.78906-0.0571-0.45994-0.1204zm13.272-1.3342-0.64143-0.72761 0.7276 0.64143c0.68006 0.59952 0.84894 0.81378 0.64143 0.81378-0.0474 0-0.37481-0.32742-0.7276-0.7276zm-9.1218-1.2401c0.82464-1.3142 3.1355-3.0247 4.1147-3.0457 0.21828-5e-3 -0.20297 0.27082-0.93612 0.61222-0.74124 0.34517-1.8509 1.1956-2.4996 1.9156-0.66045 0.73309-0.95504 0.95775-0.67899 0.5178zm5.772 0.19038c0.40218-0.0608 0.99749-0.0592 1.3229 4e-3 0.32543 0.0628-4e-3 0.11256-0.73124 0.11057-0.7276-2e-3 -0.99386-0.0534-0.59167-0.11418zm-59.401-0.80233c0.34267-0.32742 0.76522-0.59169 0.93901-0.58726 0.17378 4e-3 0.0778 0.14015-0.21319 0.30162-0.29105 0.16146-0.7136 0.42573-0.93901 0.58726s-0.12948 0.0258 0.21319-0.30162zm65.926-0.26458-0.64143-0.72761 0.7276 0.64144c0.40018 0.35279 0.72761 0.68021 0.72761 0.7276 0 0.20751-0.21426 0.0386-0.81378-0.64143zm-60.9-0.78204c0.32742-0.0631 0.8632-0.0631 1.1906 0s0.0595 0.11466-0.59531 0.11466c-0.65485 0-0.92274-0.0516-0.59531-0.11466zm59.201-0.36039c-0.43656-0.27964-0.65811-0.50906-0.49233-0.50983 0.16578-7.9e-4 0.5825 0.23278 0.92605 0.51898 0.78662 0.65532 0.59741 0.65133-0.43372-9e-3zm-1.9844-0.7758c-0.54492-0.17451-0.56823-0.21577-0.13229-0.23416 0.29104-0.0123 0.70776 0.0931 0.92604 0.23416 0.46359 0.29959 0.14173 0.29959-0.79375 0zm-3.2412-0.45598c0.47295-0.0587 1.2468-0.0587 1.7198 0 0.47294 0.0587 0.086 0.10671-0.8599 0.10671-0.94589 0-1.3328-0.048-0.8599-0.10671zm-95.87-13.038c0-2.4011 0.0401-3.3834 0.0891-2.1828 0.049 1.2005 0.049 3.1651 0 4.3656-0.049 1.2006-0.0891 0.21828-0.0891-2.1828zm56.844 0.85993c9.4225-0.0385 24.841-0.0385 34.264 0 9.4225 0.0385 1.7132 0.07-17.132 0.07-18.845 0-26.554-0.0315-17.132-0.07zm54.84-1.5558c0.57948-0.38276 1.2024-0.88176 1.3843-1.1089 0.18362-0.22929 0.33073-0.27846 0.33073-0.11054 0 0.30166-2.1538 1.9154-2.5565 1.9154-0.1167 0 0.26194-0.31316 0.84143-0.69592zm-79.11-1.6805c-0.56577-0.57942-0.97689-1.093-0.91359-1.1412 0.0633-0.0483 0.57706 0.42579 1.1417 1.0535 1.2892 1.4332 1.1412 1.4901-0.22808 0.0878zm48.546-0.53096 27.12-0.13536 1.0912-0.58371c0.60016-0.32104 1.4038-0.95525 1.7859-1.4094l0.69474-0.82565v-5.1207c0-5.1-2e-3 -5.1211-0.59531-5.2353-0.51042-0.0983-0.49156-0.1198 0.13229-0.15069l0.7276-0.036-2e-3 5.2255c-2e-3 5.6902-0.0622 5.9547-1.6422 7.1975-1.7742 1.3956-0.48979 1.3402-29.502 1.2722l-26.93-0.0631zm33.747-1.5408c0.27046-0.78499 0.36289-6.2061 0.43054-25.25 0.0474-13.338 0.18397-23.929 0.30353-23.536 0.30711 1.0093-0.0443 47.306-0.3683 48.527-0.14319 0.53955-0.36155 1.0436-0.48525 1.12-0.1237 0.0764-0.0699-0.31082 0.11948-0.8606zm8.148-1.7696c1e-3 -1.1642 0.0475-1.6075 0.10337-0.98519 0.0559 0.62231 0.0551 1.5748-2e-3 2.1167-0.0569 0.54186-0.10258 0.0327-0.10162-1.1315zm-92.307-13.891c0-7.6398 0.0338-10.765 0.0751-6.9453s0.0413 10.071 0 13.891-0.0751 0.69453-0.0751-6.9453zm92.344-19.05c0-16.953 0.0317-23.889 0.0705-15.412 0.0387 8.4766 0.0387 22.347 0 30.824-0.0388 8.4766-0.0705 1.5412-0.0705-15.412zm-70.441 23.085c7.8217-0.0389 20.621-0.0389 28.443 0 7.8217 0.0389 1.4221 0.0708-14.221 0.0708s-22.043-0.0319-14.221-0.0708zm48.551 1e-3c1.4916-0.0472 3.9324-0.0472 5.424 0s0.2712 0.0858-2.712 0.0858-4.2036-0.0386-2.712-0.0858zm25.059-14.619c0-6.4757 0.0344-9.1248 0.0765-5.887 0.0421 3.2378 0.0421 8.5361 0 11.774-0.0421 3.2378-0.0765 0.58869-0.0765-5.887zm-88.418 10.653c0.69561-0.0547 1.7672-0.054 2.3812 2e-3 0.61407 0.0555 0.0449 0.10023-1.2648 0.0994-1.3097-8e-4 -1.8121-0.0462-1.1165-0.10089zm31.345-1e-3c0.9095-0.0517 2.3978-0.0517 3.3073 0 0.90951 0.0517 0.16537 0.0939-1.6536 0.0939-1.819 0-2.5632-0.0423-1.6536-0.0939zm24.276-0.0636c17.805-0.15405 17.064-0.0677 18.16-2.1176 0.27112-0.50705 0.49294-0.72455 0.49294-0.48332 0 0.65802-1.3146 2.0902-2.2942 2.4995-0.70238 0.29348-3.7941 0.34949-16.549 0.29981l-15.685-0.0611zm-58.113-0.54993-0.62462-0.54487 0.79375 0.46479c1.0447 0.61173 1.0602 0.62495 0.73487 0.62495-0.15365 0-0.56045-0.24519-0.904-0.54487zm76.883-10.171c1.2e-4 -4.2201 0.0367-5.9095 0.0812-3.7541 0.0445 2.1553 0.0444 5.6081-2.3e-4 7.6729-0.0447 2.0648-0.0811 0.30132-0.081-3.9188zm-78.097-10.451c0-0.65484 0.0516-0.92273 0.11467-0.59531 0.0631 0.32742 0.0631 0.8632 0 1.1906-0.0631 0.32742-0.11467 0.05953-0.11467-0.59531zm0.0246-5.6885c7.9e-4 -1.4552 0.0451-2.0168 0.0987-1.2479s0.0531 1.9595-1e-3 2.6458c-0.0542 0.68634-0.0981 0.05728-0.0974-1.3979zm92.08-0.66146c0-1.819 0.0423-2.5632 0.0939-1.6536 0.0517 0.9095 0.0517 2.3978 0 3.3073s-0.0939 0.16536-0.0939-1.6536zm-112.16-12.832c6e-5 -6.5484 0.0345-9.1894 0.0765-5.8689s0.042 8.6783-1.1e-4 11.906c-0.0421 3.2279-0.0764 0.5111-0.0764-6.0373zm98.111 9.9219c0-0.65484 0.0516-0.92273 0.11467-0.59531 0.0631 0.32742 0.0631 0.8632 0 1.1906-0.0631 0.32742-0.11467 0.05953-0.11467-0.59531zm-0.30595-2.0413c-0.0169-0.32236-0.41764-1.027-0.89059-1.5659-0.68855-0.78452-0.74181-0.91659-0.26732-0.66282 0.71383 0.38177 1.4692 1.7521 1.3062 2.3695-0.0842 0.31871-0.1263 0.27868-0.14827-0.14084zm-77.288-0.52917c-1e-3 -0.42595 1.5596-2.192 1.9374-2.192 0.16283 0 0.0212 0.19249-0.31466 0.42776-0.33589 0.23527-0.83819 0.80081-1.1162 1.2568-0.27803 0.45596-0.50596 0.68433-0.5065 0.5075zm91.617-0.8691c0-0.65484 0.0516-0.92274 0.11466-0.59531 0.0631 0.32742 0.0631 0.8632 0 1.1906s-0.11466 0.05953-0.11466-0.59531zm-11.527-1.4247c-0.5422-1.3146-1.1947-1.9875-2.6964-2.7808-0.57993-0.30637-0.90316-0.55703-0.7183-0.55703 1.2757 0 4.3111 3.2475 3.971 4.2485-0.0449 0.13211-0.29522-0.27768-0.5563-0.91064zm-5.3238 0.16789c-0.10897-0.10914-5.2783-0.26523-11.487-0.34687l-11.289-0.14843 11.245 0.01614c8.3562 0.01199 11.381 0.09903 11.774 0.33882 0.29104 0.17748 0.40018 0.32631 0.24254 0.33073-0.15765 0.0044-0.37579-0.08125-0.48476-0.19039zm-77.678-0.5051c0-0.14441 0.32742-0.5512 0.72761-0.90399l0.7276-0.64143-0.66146 0.79375c-0.3638 0.43656-0.69122 0.84336-0.7276 0.90399-0.0364 0.06063-0.0661-0.0079-0.0661-0.15232zm2.0432-2.2202c0.32338-0.3403 0.63914-0.56581 0.70169-0.50113 0.0626 0.06467-0.20203 0.3431-0.58796 0.61872l-0.70169 0.50113zm75.551-1.2284c0.25743-0.06708 0.61462-0.06267 0.79375 0.0098 0.17913 0.07248-0.0315 0.12736-0.46806 0.12197-0.43656-0.0054-0.58312-0.06469-0.32569-0.13177zm-54.509-0.27964c9.7135-0.03846 25.608-0.03846 35.322 0 9.7135 0.03846 1.7661 0.06993-17.661 0.06993s-27.374-0.03147-17.661-0.06993zm-15.865-5.4901c2e-3 -0.7276 0.0534-0.99386 0.11419-0.59167 0.0608 0.40218 0.0592 0.9975-4e-3 1.3229-0.0628 0.32542-0.11256-0.0037-0.11057-0.73124zm83.818-5.7896c-0.026-0.94996-0.81132-2.2497-1.7899-2.9626-1.7304-1.2605-2.9171-1.5226-7.756-1.7133l-4.6302-0.18248 4.7625 0.03884c4.2349 0.03454 4.898 0.10077 5.9855 0.59783 2.4456 1.1178 4.1268 3.2922 3.5872 4.6393-0.076 0.18971-0.14759 0.0019-0.15908-0.41759zm3.4703-0.29581c5e-3 -0.43656 0.0647-0.58313 0.13177-0.3257 0.0671 0.25743 0.0627 0.61462-0.01 0.79375-0.0725 0.17913-0.12736-0.03149-0.12197-0.46806zm-0.54143-1.9575c-0.72135-2.4077-3.5574-4.5928-7.2789-5.6083-1.6814-0.4588-1.7445-0.4975-0.57557-0.35275 3.6183 0.44804 7.1552 3.0007 8.0924 5.8404 0.16752 0.50758 0.25226 0.9752 0.18831 1.0392-0.064 0.06395-0.25579-0.34941-0.42632-0.91857zm-105.34-1.8669c0.21828-0.14771 0.62508-0.27039 0.90399-0.27262 0.67692-0.0054 0.46574 0.14603-0.50712 0.36364-0.57968 0.12966-0.68671 0.10512-0.39687-0.09102zm22.841-0.47509c11.762-0.03812 30.931-0.03811 42.598 8e-6 11.667 0.03812 2.0429 0.06931-21.386 0.0693-23.429-5e-6 -32.974-0.03119-21.212-0.06931zm-20.655-3.6956c0.40218-0.06082 0.99749-0.05919 1.3229 0.0036 0.32542 0.0628-4e-3 0.11256-0.73125 0.11058-0.7276-0.0021-0.99385-0.05337-0.59167-0.11419zm112.25-4.503c-0.9132-1.4088-1.7177-2.0607-3.1903-2.5853-0.57367-0.20436-0.82102-0.37679-0.54968-0.38318 1.3786-0.03245 4.666 2.7875 4.666 4.0025 0 0.35534-0.0921 0.25254-0.92604-1.034zm-133.57-1.8577c0.25669-0.47412 1.0017-1.3671 1.6555-1.9844l1.1888-1.1223-1.1818 1.3229c-0.64996 0.7276-1.3949 1.6206-1.6555 1.9844-0.45764 0.63894-0.45787 0.63212-7e-3 -0.20058zm136.23-1.0562c-0.5718-0.73084-0.61762-0.85358-0.17393-0.46597 0.53045 0.4634 1.2302 1.4582 1.0256 1.4582-0.0415-6e-6 -0.42477-0.44649-0.85172-0.99219zm-124.31-0.26365c1.6371-0.04642 4.316-0.04642 5.9531 0 1.6371 0.04642 0.29765 0.0844-2.9766 0.0844-3.2742 0-4.6137-0.03798-2.9766-0.0844zm115.89 0.0104c0.32912-0.06329 0.80537-0.06088 1.0583 0.0053 0.25296 0.06622-0.0163 0.118-0.5984 0.11507-0.58208-0.0029-0.78905-0.05712-0.45994-0.12041zm6.2808-1.8303c-0.47575-0.40484-0.57303-0.56582-0.24282-0.4018 0.48499 0.24089 1.3947 1.1118 1.1351 1.0868-0.0542-0.0052-0.45572-0.31347-0.89229-0.68496zm-5.887-1.8692c0.25467-0.06655 0.67138-0.06655 0.92605 0 0.25466 0.06655 0.0463 0.121-0.46302 0.121-0.50933 0-0.71769-0.05445-0.46303-0.121z" fill="#4e4d4a"/>
    <path d="m-2.6889 218.33c-2.0172-0.69752-3.6472-1.7532-4.9579-3.211-1.8917-2.104-2.1237-2.8083-2.3589-7.161-0.39745-7.3559-0.12744-153.72 0.28561-154.83 0.92634-2.4726 3.9514-5.3438 6.5154-6.1839 1.5466-0.50676 2.7729-0.51692 62.432-0.51692 67.265 0 62.958-0.11157 65.654 1.7009 1.694 1.1387 3.623 3.6234 4.1084 5.2919 0.2892 0.99405 0.35183 15.15 0.35183 79.526v78.317l-0.7039 1.5016c-1.3688 2.9199-3.6731 4.7726-7.0202 5.6444-2.5037 0.65212-122.41 0.57374-124.31-0.0813zm124.33-3.6028c0.68454-0.20601 1.6413-0.67711 2.1261-1.0469 0.48481-0.36977 0.97477-0.58817 1.0888-0.48532 0.11405 0.10284 0.12656 0.046 0.0278-0.1263-0.0988-0.17232 0.0905-0.82716 0.4206-1.4552l0.60015-1.1419 0.0697-77.112c0.0759-83.989 0.16755-78.599-1.3724-80.685-0.36526-0.49466-0.59014-1.0191-0.49973-1.1654 0.0904-0.14628 0.04-0.18911-0.11199-0.09517-0.15201 0.09394-0.85501-0.15555-1.5622-0.55443l-1.2859-0.72524h-61.383c-56.096 0-61.465 0.03703-62.329 0.42992-1.3957 0.63479-2.9088 2.0672-3.4561 3.272-0.75588 1.6639-0.7518 155.78 4e-3 157.43 0.2673 0.58209 0.73812 1.2826 1.0463 1.5567 0.30816 0.27411 0.48448 0.6313 0.39182 0.79375-0.0927 0.16245-0.0751 0.21117 0.039 0.10827 0.11412-0.10291 0.69874 0.0757 1.2992 0.39687l1.0917 0.58398 32.147 0.1349c73.549 0.30863 90.317 0.28803 91.648-0.1126zm-80.932-7.8248c-35.112-0.15311-32.403 0.0308-34.797-2.3629-2.1514-2.1514-1.9773 4.3277-1.9428-72.316l0.0308-68.459 0.70965-1.4505c0.85443-1.7464 2.3672-3.1027 4.3606-3.9094l1.4762-0.59743 47.625-0.07715c52.34-0.08479 49.411-0.16772 52.934 1.4985 1.9938 0.94292 3.8708 2.9688 4.5125 4.8704 0.44006 1.3041 0.46694 5.1554 0.48167 69.001l0.0156 67.619-0.81617 1.5692c-0.4489 0.86307-0.96376 1.5365-1.1442 1.4965-0.18038-0.04-0.26382 0.0311-0.18542 0.15795 0.20539 0.33233-1.1016 1.4799-2.4636 2.1631-2.267 1.1371 0.37188 1.1074-70.797 0.79706zm68.355-3.2826c0.77861-0.21475 1.6214-0.57667 1.8729-0.80426 0.25149-0.2276 0.5967-0.41381 0.76715-0.41381 0.17044 0 0.30989-0.17859 0.30989-0.39687s0.0951-0.39688 0.21143-0.39688c0.8282 0 0.84807-1.5657 0.86328-68.022 8e-3 -36.444-0.0413-66.438-0.11034-66.655-0.069-0.21641-0.18867-0.84592-0.26587-1.3989-0.19069-1.3659-1.3109-2.592-3.1894-3.491l-1.5648-0.74887-47.941 0.06241c-26.368 0.03432-48.377 0.1608-48.91 0.28104-1.4332 0.32324-2.2641 0.97322-2.8259 2.2105-0.48773 1.0742-0.50101 2.9189-0.49429 68.705 8e-3 75.477-0.17433 68.537 1.84 70.155l0.93247 0.74917 31.876 0.0377c17.532 0.0207 35.805 0.11097 40.607 0.20051 19.116 0.35643 24.516 0.34101 26.022-0.0743zm-18.268-9.6864c-2.5791-0.41108-6.3723-2.8173-6.0521-3.8391 0.0347-0.11061-0.096-0.29943-0.2903-0.41959-0.61236-0.37866-0.43772-3.661 0.25438-4.7808 1.9364-3.1331 3.4827-3.696 10.24-3.7276 6.2875-0.0294 7.4843 0.27466 9.6959 2.4632 1.4218 1.4069 1.8134 2.1939 1.8134 3.6438 0 3.1684-1.9011 5.2876-5.6489 6.2968-1.6966 0.45685-7.9924 0.68527-10.013 0.36326zm10.19-3.4601c2.8277-0.95827 3.1162-4.2651 0.50043-5.7353-1.3639-0.76656-9.7078-0.89769-11.73-0.18434-3.3904 1.1962-3.772 4.2598-0.73399 5.8919 1.1309 0.60758 1.2967 0.62119 6.0576 0.49748 2.971-0.0772 5.2921-0.26182 5.9056-0.46975zm-34.223 2.2266c-0.3598-0.24278-0.69413-0.47124-0.74294-0.50768-0.0488-0.0364-0.1115-0.82006-0.13929-1.7414-0.0278-0.92132-0.21741-2.4066-0.42138-3.3006-0.5728-2.5106 0.10849-2.9367 4.6182-2.8879 3.8429 0.0416 5.424 0.44898 5.424 1.3976 0 0.94108-0.47402 1.6605-1.0941 1.6605-0.30047 0-0.98089 0.44252-1.512 0.98337s-1.0253 0.98835-1.098 0.99443c-0.2417 0.0202-2.1661 1.991-1.9441 1.991 0.1199 0-0.22706 0.31668-0.77104 0.70372-0.54397 0.38704-0.98904 0.80376-0.98904 0.92604 0 0.35923-0.62592 0.25613-1.3302-0.21911zm1.5999-3.4002c0.6455-0.6577 1.3237-1.1382 1.5071-1.0678 0.18342 0.0704 0.30516 0.0289 0.27053-0.0921-0.0346-0.12104 0.23037-0.45994 0.5889-0.75309l0.65188-0.53302-2.5651-0.014c-1.4108-8e-3 -2.6301 0.0913-2.7096 0.21987-0.12136 0.19637 0.17574 1.8841 0.54663 3.1053 0.16607 0.54679 0.4798 0.38804 1.7097-0.86511zm-15.664 3.2464c-1.1458-0.91412-1.0345-2.6122 0.15634-2.3846 0.55313 0.10573 3.5967-2.7213 3.5967-3.3408 0-0.2614-2.8967-0.0394-3.4866 0.26725-0.81353 0.42289-2.0222-0.62911-1.2623-1.0987 0.16287-0.10067 0.28597-0.25901 0.27354-0.35188-0.0707-0.52845 0.0573-0.67565 0.8373-0.96247 1.2011-0.4417 8.0208-0.57506 9.1943-0.17979 1.3777 0.46408 1.4598 1.5936 0.14741 2.0268-0.51764 0.17083-0.94116 0.40753-0.94116 0.52599s-0.30186 0.29114-0.67081 0.38374c-0.37585 0.0943-0.78049 0.45683-0.92023 0.82437-0.13718 0.36081-0.34133 0.62537-0.45366 0.58793-0.11234-0.0374-0.74004 0.44346-1.3949 1.0687-1.7978 1.7164-1.9075 1.8049-2.9846 2.406-1.156 0.64519-1.5184 0.68461-2.0913 0.22751zm-19.398-2.8767c-1.4552-0.10313-3.05-0.12154-3.544-0.0409-0.57277 0.0935-0.8381 0.0495-0.73241-0.12156 0.0957-0.15486-0.25562-0.33554-0.83157-0.42763-2.2387-0.35798-3.0284-2.0631-2.4104-5.2044 0.47454-2.412 0.21281-3.228-1.2836-4.0021-0.99434-0.51431-1.5791-0.63302-2.8397-0.57646-3.8253 0.17163-4.9463 0.14105-5.23-0.14268-0.16489-0.16488-0.52114-0.29979-0.79166-0.29979-0.27053 0-0.42943-0.10103-0.35311-0.22452 0.0763-0.12348-0.0973-0.47792-0.38589-0.78765-0.66284-0.71148-0.83674-2.3462-0.83221-7.8232 5e-3 -6.3499 0.27215-6.6722 5.5902-6.7508 3.6325-0.0537 4.671-0.17225 5.2108-0.5949 0.53121-0.41592 1.015-2.6126 0.68998-3.133-0.21465-0.34372-0.20284-0.59254 0.0455-0.95984 0.18442-0.27271 0.35068-1.2447 0.36946-2.1599 0.0188-0.91524 0.10482-1.7784 0.19121-1.9182 0.0864-0.13977 0.0411-0.25414-0.10055-0.25414-0.63881 0 1.4472-1.8586 2.2564-2.0104 0.48421-0.0908 0.88039-0.2412 0.8804-0.33415 1e-5 -0.17941 7.0816-0.13898 8.2021 0.0468 2.498 0.41425 3.5483 1.5719 3.6392 4.0112 0.037 0.99384 0.16719 1.9376 0.28925 2.0972 0.12207 0.15966 0.18265 0.80116 0.13463 1.4256-0.0647 0.84143 0.073 1.3893 0.5322 2.1167 0.34073 0.53976 0.66658 1.0996 0.7241 1.2442 0.0575 0.14453 0.26536 0.22587 0.46186 0.18074 0.21401-0.0491 0.28101 0.0414 0.16708 0.22571-0.14246 0.23051 0.80996 0.28082 3.7943 0.20044 2.1938-0.0591 3.9212-5e-3 3.8436 0.12067-0.0775 0.12539 0.22716 0.36692 0.67702 0.53673 0.50593 0.19096 0.81793 0.49441 0.81793 0.7955 0 0.26773 0.10601 0.42126 0.23557 0.34119 0.12957-0.0801 0.31549 0.28037 0.41315 0.80099 0.26153 1.3941 0.31297 7.7801 0.0627 7.7801-0.11805-2e-5 -0.13621 0.52304-0.0403 1.1624 0.12431 0.82897 0.0506 1.4172-0.25715 2.0505-0.96488 1.9861-0.72852 1.9072-5.5141 1.8418l-4.3171-0.059-0.82869 0.74331c-0.86905 0.77951-1.2582 2.9549-0.74036 4.1391 0.24295 0.55562-0.29038 3.1915-0.82198 4.0625-0.43241 0.70846-2.5439 1.8009-3.8021 1.9671-0.50932 0.0673-2.1167 0.038-3.5719-0.0652zm-2.4966-2.761c0.30727-0.27808 1.2302-0.46241 2.8362-0.56646 2.184-0.1415 2.4308-0.10746 2.9887 0.41222 1.371 1.2773 1.8284 0.39496 2.0316-3.9186l0.14269-3.0299 1.187-1.269c1.5697-1.6781 2.4743-1.9098 6.5588-1.6796 4.1311 0.23282 3.9227 0.47749 4.0391-4.7428 0.0983-4.4071-0.29872-6.4004-1.1362-5.7053-0.2119 0.17585-0.5047 0.24592-0.65068 0.15569-0.14598-0.0902-1.2816-0.1678-2.5236-0.17241-1.4751-5e-3 -2.3759-0.12614-2.5978-0.34798-0.18677-0.18677-0.77879-0.48453-1.3156-0.6617-2.3066-0.76124-3.0084-2.1637-3.5199-7.0338-0.38717-3.6864-1.3001-4.3632-5.8875-4.3646-5.0584-2e-3 -5.4502 0.38056-5.9888 5.8409-0.47327 4.7979-0.50094 4.8203-6.179 5.006-3.2039 0.10479-4.0971 0.21482-4.2954 0.52917-0.38518 0.6104-0.33131 11.198 0.059 11.589 0.22007 0.22007 1.5965 0.3175 4.4855 0.3175 6.2422 0 6.3095 0.0646 6.3095 6.0601v3.9941h1.5005c0.98732 0 1.6563-0.14098 1.956-0.41221zm0.0461-2.2899c-0.15818-0.19059-0.322-1.8789-0.37146-3.8282-0.13398-5.2804-0.86703-5.8723-7.2984-5.8935l-3.5057-0.0116 4e-3 -3.3734c2e-3 -1.8554 0.11666-3.552 0.2543-3.7703 0.19644-0.31155 1.0915-0.42923 4.1631-0.54736 5.7983-0.22299 5.7773-0.20381 6.0471-5.5194 0.23888-4.7059 0.35133-4.9 2.843-4.908 2.7843-9e-3 2.994 0.31521 3.2276 4.9875 0.24429 4.8868 0.71691 5.4843 4.2661 5.3934 2.9828-0.0764 3.0072-0.0424 3.0072 4.1749v3.5626h-4.9169l-1.062 1.1245c-1.8367 1.9449-1.8116 1.8746-1.9563 5.4618l-0.13461 3.3356-2.1421 0.0762c-1.5045 0.0535-2.2263-0.0253-2.425-0.26478zm3.2139-11.091c1.441-0.65655 1.9221-4.3143 0.6979-5.3056-0.84684-0.68573-2.232-0.49201-3.1669 0.44293-0.81033 0.81033-0.98706 3.4342-0.27881 4.1393 0.99759 0.99316 1.7316 1.1864 2.7478 0.72339zm11.804 1.3669c-1.0291-0.16244-1.0522-0.30582-0.37729-2.334 0.20751-0.62355 0.37729-2.0263 0.37729-3.1172 0-2.2551 0.13943-2.408 1.6986-1.8636l1.0372 0.36218-0.0656 3.2716c-0.0361 1.7994-0.0997 3.3056-0.14137 3.3473-0.26105 0.26106-1.747 0.45713-2.5289 0.33371zm2.3151-9.1879c-0.25466-0.0666-0.67138-0.0666-0.92604 0-0.25466 0.0665-0.0463 0.121 0.46302 0.121s0.71768-0.0545 0.46302-0.121zm36.645 10.066c-0.32743-0.0722-0.59532-0.24724-0.59532-0.38902 0-0.14177-0.14882-0.23845-0.33073-0.21483-0.7329 0.0952-1.0266-0.0681-2.1585-1.2-1.1999-1.1999-1.7186-2.0831-2.3372-3.9791-0.29228-0.89599-0.44577-1.0469-1.0006-0.98404-4.3282 0.49071-5.1942 0.28792-7.1952-1.6849-2.4992-2.464-2.7868-6.5781-0.61188-8.753 0.47492-0.47492 0.82331-0.90367 0.7742-0.95278-0.0491-0.0491 0.58238-0.44003 1.4033-0.86871 1.3397-0.69961 1.744-0.77943 3.9476-0.77943 2.4126 0 2.9668-0.17021 3.1178-0.95761 0.49503-2.5813 3.1956-4.7152 6.2433-4.9332 2.6538-0.18983 6.0726 1.0621 6.4988 2.3798 0.0814 0.2517 0.28418 0.4303 0.4506 0.39687 0.16641-0.0334 0.31221 0.0583 0.32398 0.20381 0.0118 0.14553 0.19156 0.56224 0.39952 0.92605 0.20797 0.3638 0.38772 0.72099 0.39944 0.79375 0.0117 0.0728 0.11237 0.58803 0.22366 1.145l0.20235 1.0128 1.1086-0.1836c0.60975-0.10097 1.2872-0.2744 1.5055-0.38537 0.74566-0.37912 4.5912 0.12972 5.1418 0.68037 0.19422 0.19422 0.75386 0.58272 1.2437 0.86334 0.48979 0.28061 0.86077 0.64308 0.82439 0.80549-0.0364 0.1624 0.0499 0.29528 0.19183 0.29528 0.14188 0 0.51335 0.56061 0.82549 1.2458 0.60568 1.3296 0.60403 4.0517-3e-3 4.6586-0.15779 0.1578-0.2869 0.55062-0.2869 0.87295 0 1.0273-2.0495 2.551-4.1304 3.0706-1.816 0.45355-3.3394 0.3352-5.8178-0.45199-0.51193-0.1626-0.56869-0.0501-0.72393 1.4352-0.24345 2.3291-1.748 4.3141-4.0532 5.3473-1.0931 0.48996-4.4268 0.83918-5.5814 0.58467zm3.8448-3.674c1.8612-0.74468 1.9099-0.98312 1.9099-9.3394v-7.4134l-0.67012-0.79638c-1.2293-1.461-4.0972-1.7847-5.644-0.6371-1.2302 0.91272-1.33 1.7361-1.1636 9.603l0.15308 7.2386 0.66192 0.61345c1.1913 1.1041 3.0906 1.3963 4.7528 0.73121zm-11.134-6.4638c3.2407-1.976 1.6582-6.8706-2.1162-6.5454-3.0459 0.26249-4.2323 3.7144-2.0942 6.0932 0.96197 1.0703 2.862 1.2744 4.2104 0.45218zm23.09 0.17997c2.774-1.4036 2.2463-5.6635-0.81513-6.5807-2.7688-0.82956-5.2079 2.8853-3.5528 5.4112 0.90759 1.3852 2.8919 1.9164 4.368 1.1695zm-73.236-28.743c-0.9209-0.25059-1.7543-0.57552-1.8521-0.72204-0.0977-0.14654-0.68375-0.54736-1.3022-0.89072-0.61846-0.34337-1.1245-0.70322-1.1245-0.79968 0-0.27514-1.0576-1.4245-1.0644-1.1567-0.01 0.39035-0.70074-1.2645-1.0049-2.4069-0.18666-0.70109-0.30388-8.9212-0.34729-24.352l-0.0655-23.294 0.62882-1.3121c0.7688-1.6042 2.4186-3.3186 3.8376-3.988 1.0213-0.48171 2.3451-0.49918 37.835-0.49918 40.187 0 37.31-0.11098 39.758 1.5338 1.0225 0.68713 2.2243 2.2968 1.7221 2.3067-0.11288 0.0021-0.0578 0.09769 0.12239 0.21214 0.82813 0.52596 0.8963 3.0352 0.71644 26.372-0.11761 15.259-0.27517 23.51-0.45729 23.945-0.29719 0.71029-0.36925 0.93037-0.42141 1.2871-0.076 0.51981-2.4652 2.6842-2.963 2.6842-0.2975 0-0.47768 0.10231-0.40039 0.22735 0.0773 0.12505-0.36218 0.45247-0.97658 0.72761-1.6626 0.74455-69.933 0.86329-72.641 0.12633zm71.284-3.3232c3.0122-1.2586 3.2795-1.9164 3.2816-8.0768l2e-3 -5.1594h-37.769c-21.036 0-38.276-0.10434-38.914-0.2355l-1.1448-0.2355 0.0864 5.2828c0.10178 6.2196 0.32185 6.8361 2.8988 8.1202l1.3926 0.69398h34.617c29.894 0 34.744-0.0532 35.55-0.38984zm1.594-17.486c1.952-1.4574 1.8277-0.25022 1.7693-17.189-0.0587-17.011 0.0191-16.327-1.9721-17.343-1.5882-0.81022-1.5919-0.81027-39.3-0.58355l-34.445 0.2071-0.80483 0.77125c-1.4855 1.4236-1.4791 1.3413-1.39 17.722 0.0903 16.598 0.0243 15.968 1.7509 16.723 0.66118 0.28921 7.3645 0.3424 37.233 0.29544 36.334-0.0571 36.429-0.0587 37.158-0.60279z" fill="#481d25"/>
   </g>
  </g>
 </g>
</svg>
